<svg version="1.1" xmlns="http://www.w3.org/2000/svg" viewBox="0 0 2093.924784230336 1458.464390882591" width="4187.849568460672" height="2916.928781765182">
  <!-- svg-source:excalidraw -->
  
  <defs>
    <style>
      @font-face {
        font-family: "Virgil";
        src: url("https://excalidraw.com/Virgil.woff2");
      }
      @font-face {
        font-family: "Cascadia";
        src: url("https://excalidraw.com/Cascadia.woff2");
      }
    </style>
  </defs>
  <rect x="0" y="0" width="2093.924784230336" height="1458.464390882591" fill="#ffffff"></rect><g transform="translate(1166.1101521441988 91.63916463090959) rotate(0 37 12.5)"><text x="0" y="18" font-family="Virgil, Segoe UI Emoji" font-size="20px" fill="#000000" text-anchor="start" style="white-space: pre;" direction="ltr">Serveur</text></g><g stroke-linecap="round" transform="translate(1076.9809561469806 59.88934452428953) rotate(0 130.69140895636815 45.407484611852965)"><path d="M-1.24 -1.25 C71.88 -0.93, 144.59 -2.82, 262.16 -0.53 M-0.52 0.7 C55.49 0.19, 111.98 0.27, 260.71 0.54 M260.57 -1.01 C259.52 26.64, 261.08 55.46, 260.55 91.47 M260.52 -0.29 C261.14 18.32, 259.64 38.59, 261.57 90.51 M262.5 90.34 C162.24 90.98, 63.38 88.09, 0.77 90.38 M261.53 90.53 C180.4 91.64, 101.37 91.45, 0.32 90.48 M0.6 92.64 C0.93 66.47, 0.51 41.22, -0.43 -1.88 M-0.62 89.94 C-0.53 72.27, 0.21 53.15, -0.42 0.7" stroke="#000000" stroke-width="1" fill="none"></path></g><g transform="translate(895.4727417141894 900.0457017531194) rotate(0 2 7.5)"><text x="0" y="10" font-family="Virgil, Segoe UI Emoji" font-size="11.383088057152326px" fill="#000000" text-anchor="start" style="white-space: pre;" direction="ltr">i</text></g><g transform="translate(873.5861174199281 887.4881199487522) rotate(0 12 12.5)"><text x="0" y="18" font-family="Virgil, Segoe UI Emoji" font-size="20px" fill="#000000" text-anchor="start" style="white-space: pre;" direction="ltr">[C</text></g><g transform="translate(905.5176514658588 886.1394192692046) rotate(0 6.632338587323829 14.738530194052828)"><text x="0" y="20.47706038810555" font-family="Virgil, Segoe UI Emoji" font-size="23.58164831048444px" fill="#000000" text-anchor="start" style="white-space: pre;" direction="ltr">]</text></g><g stroke-linecap="round" transform="translate(866.3674725881947 446.4384138942835) rotate(0 103.28929309356977 50.56119242342572)"><path d="M-0.21 -0.89 C43.87 -0.85, 87.63 -0.31, 206.4 1.24 M-0.79 0.78 C52.56 1.36, 107.17 0.79, 205.75 0.08 M205.86 -1.22 C207.67 31.6, 205.63 66.2, 205.65 99.31 M207.56 0.29 C206.49 34.89, 205.51 70.77, 207.46 101.16 M207.44 102.88 C136.86 102.24, 67.28 100.98, 0.84 101.03 M207.14 100.57 C148.54 98.69, 91.65 99.92, 0.69 101.53 M1.89 100.99 C1.09 75.56, -1.9 49.06, 1.04 -0.82 M0.42 101.37 C-1.13 64.63, 0.05 28.3, 0.59 -0.2" stroke="#000000" stroke-width="1" fill="none"></path></g><g stroke-linecap="round"><g transform="translate(864.6705495518145 525.9295914244537) rotate(0 -60.80438620408586 60.7438527470664)"><path d="M-0.14 -0.6 C-20.32 19.55, -100.15 100.57, -120.26 120.87 M-1.67 1.69 C-22.13 22, -102 101.97, -121.47 122.09" stroke="#000000" stroke-width="1" fill="none"></path></g><g transform="translate(864.6705495518145 525.9295914244537) rotate(0 -60.80438620408586 60.7438527470664)"><path d="M-109.99 94 C-114.59 103.08, -118.58 114.68, -120.07 121.26 M-108.11 93.94 C-113.67 104.34, -118.46 111.92, -121.37 122.28" stroke="#000000" stroke-width="1" fill="none"></path></g><g transform="translate(864.6705495518145 525.9295914244537) rotate(0 -60.80438620408586 60.7438527470664)"><path d="M-95.38 108.4 C-105.35 112.17, -114.71 118.46, -120.07 121.26 M-93.49 108.35 C-103.79 113.83, -113.45 116.61, -121.37 122.28" stroke="#000000" stroke-width="1" fill="none"></path></g></g><g transform="translate(925.3168169202186 463.0939719591445) rotate(0 38 12.5)"><text x="0" y="18" font-family="Virgil, Segoe UI Emoji" font-size="20px" fill="#000000" text-anchor="start" style="white-space: pre;" direction="ltr">Filtrage</text></g><g stroke-linecap="round"><g transform="translate(1193.9991798726314 151.70431374799546) rotate(0 -83.45766811415228 141.73865417599927)"><path d="M-0.49 -0.61 C-28.53 46.61, -140.55 235.28, -168.37 282.67 M1.46 1.69 C-26.21 49.14, -137.93 237.39, -166.21 284.08" stroke="#000000" stroke-width="1" fill="none"></path></g><g transform="translate(1193.9991798726314 151.70431374799546) rotate(0 -83.45766811415228 141.73865417599927)"><path d="M-161.55 252.87 C-162.72 262.9, -162.57 270.75, -165.56 282.32 M-160.83 255.19 C-162.41 259.86, -162.58 267.19, -166.52 284.86" stroke="#000000" stroke-width="1" fill="none"></path></g><g transform="translate(1193.9991798726314 151.70431374799546) rotate(0 -83.45766811415228 141.73865417599927)"><path d="M-143.94 263.41 C-150.14 270.33, -155.06 275.14, -165.56 282.32 M-143.22 265.73 C-148.61 268.02, -152.5 273.13, -166.52 284.86" stroke="#000000" stroke-width="1" fill="none"></path></g></g><g stroke-linecap="round"><g transform="translate(573.9515815998034 737.659238071727) rotate(0 -92.62818365244539 85.21953192506703)"><path d="M-0.61 -1.05 C-31.41 27.36, -154.83 141.57, -185.46 170.02 M1.28 1.01 C-29.66 29.66, -155.54 143.21, -186.53 171.49" stroke="#000000" stroke-width="1" fill="none"></path></g><g transform="translate(573.9515815998034 737.659238071727) rotate(0 -92.62818365244539 85.21953192506703)"><path d="M-174.3 144.56 C-176.34 152.9, -180.47 158.79, -188.3 169.71 M-171.98 144.03 C-179.13 155.3, -183.44 165.18, -185.76 171.14" stroke="#000000" stroke-width="1" fill="none"></path></g><g transform="translate(573.9515815998034 737.659238071727) rotate(0 -92.62818365244539 85.21953192506703)"><path d="M-160.51 159.76 C-165.93 164.24, -173.51 166.33, -188.3 169.71 M-158.19 159.23 C-170.56 164.57, -180.21 168.55, -185.76 171.14" stroke="#000000" stroke-width="1" fill="none"></path></g></g><g transform="translate(231.64958112738623 1117.694683914328) rotate(359.6158547181367 28 12.5)"><text x="0" y="18" font-family="Virgil, Segoe UI Emoji" font-size="20px" fill="#495057" text-anchor="start" style="white-space: pre;" direction="ltr">decay</text></g><g transform="translate(268.6245565558402 921.9636546003253) rotate(0 77.5 25)"><text x="0" y="18" font-family="Virgil, Segoe UI Emoji" font-size="20px" fill="#000000" text-anchor="start" style="white-space: pre;" direction="ltr">Aggregation des</text><text x="0" y="43" font-family="Virgil, Segoe UI Emoji" font-size="20px" fill="#000000" text-anchor="start" style="white-space: pre;" direction="ltr">feedbacks</text></g><g stroke-linecap="round" transform="translate(132.38719128186221 686.0334029022449) rotate(0 86.21761455616024 54.04866028848528)"><path d="M-1.24 -1.75 C36.27 2.1, 73.93 1.99, 171.6 1.41 M0.9 0.28 C45.55 0.2, 92.81 -0.3, 173.04 0.3 M170.8 -0.15 C173.6 36.98, 174.06 73.55, 174.07 109.09 M172.74 0.96 C170.64 39.77, 172.6 79.01, 172.58 107.3 M173.7 107.44 C121.61 105.65, 70.15 107.93, 0.95 106.22 M171.6 107.26 C136.45 109.53, 102.46 109.48, 0.22 107.3 M-1.42 106.86 C0.77 68.36, 1.16 28.62, -1.63 -0.72 M-0.56 108.11 C0.04 85.1, 0.76 62.36, 0.77 0.47" stroke="#e67700" stroke-width="1" fill="none"></path></g><g transform="translate(153.10397574352373 700.2357130582661) rotate(0 66.5 37.5)"><text x="66.5" y="18" font-family="Virgil, Segoe UI Emoji" font-size="20px" fill="#e67700" text-anchor="middle" style="white-space: pre;" direction="ltr">Evaluation </text><text x="66.5" y="43" font-family="Virgil, Segoe UI Emoji" font-size="20px" fill="#e67700" text-anchor="middle" style="white-space: pre;" direction="ltr">de la qualité</text><text x="66.5" y="68" font-family="Virgil, Segoe UI Emoji" font-size="20px" fill="#e67700" text-anchor="middle" style="white-space: pre;" direction="ltr">de l'aggrégat</text></g><g transform="translate(808.4203524888671 669.1561028712883) rotate(0 104.5 25)"><text x="0" y="18" font-family="Virgil, Segoe UI Emoji" font-size="20px" fill="#000000" text-anchor="start" style="white-space: pre;" direction="ltr">Détection d'acteurs </text><text x="0" y="43" font-family="Virgil, Segoe UI Emoji" font-size="20px" fill="#000000" text-anchor="start" style="white-space: pre;" direction="ltr">malveillants</text></g><g stroke-linecap="round" transform="translate(97.16240173577626 393.2659892130753) rotate(0 689.793986613715 421.81686942573094)"><path d="M-0.25 0.62 C284.63 -1.51, 570.39 -1.26, 1379.33 0.72 M-0.11 0.03 C350.53 -2.56, 700.35 -2.82, 1379.27 0.11 M1379.25 -0.22 C1380.09 328.34, 1379.95 655.82, 1380.14 843.8 M1379.21 -0.36 C1379.67 292.84, 1379.17 585.84, 1379.61 843.84 M1380.15 843.37 C858.82 841.27, 337.27 841.55, -0.47 843.7 M1379.71 843.8 C894.27 847.05, 408.3 846.92, 0.14 843.63 M0.4 844.19 C0.1 540.91, 0.93 238.99, -0.8 -0.12 M-0.32 843.61 C2.95 509.07, 3.06 174.96, -0.03 -0.24" stroke="#000000" stroke-width="1" fill="none"></path></g><g transform="translate(647.7228495945856 1185.3728020350559) rotate(0 229 17.5)"><text x="0" y="25" font-family="Virgil, Segoe UI Emoji" font-size="28px" fill="#000000" text-anchor="start" style="white-space: pre;" direction="ltr">Système de réputation local à A</text></g><g transform="translate(822.7144912434101 845.4505442875156) rotate(0 73.64353974724531 19.508222449601362)"><text x="73.6435397472454" y="13.50822244960142" font-family="Virgil, Segoe UI Emoji" font-size="15.60657795968116px" fill="#000000" text-anchor="middle" style="white-space: pre;" direction="ltr">Confiance émeteur </text><text x="73.6435397472454" y="33.01644489920284" font-family="Virgil, Segoe UI Emoji" font-size="15.60657795968116px" fill="#000000" text-anchor="middle" style="white-space: pre;" direction="ltr">du feedbacks</text></g><g stroke-linecap="round"><g transform="translate(982.7144030660502 884.4512084759785) rotate(0 70.980565724489 -160.7630862726861)"><path d="M1.18 0.35 C23.69 -1.5, 114.91 37.97, 134.74 -11.01 C154.57 -59.99, 126.07 -239.44, 120.16 -293.54 C114.25 -347.63, 102.85 -328.47, 99.27 -335.57 M0.34 -0.52 C22.74 -2.21, 113.54 38.9, 133.91 -9.69 C154.28 -58.28, 128.8 -237.92, 122.55 -292.05 C116.3 -346.17, 100.59 -327.12, 96.41 -334.44" stroke="#000000" stroke-width="1" fill="none"></path></g><g transform="translate(982.7144030660502 884.4512084759785) rotate(0 70.980565724489 -160.7630862726861)"><path d="M120.79 -334.54 C113.01 -336.13, 107.79 -332.65, 96.48 -333.64 M121.2 -334.61 C114.98 -333.99, 108.12 -334.08, 96.36 -334.66" stroke="#000000" stroke-width="1" fill="none"></path></g><g transform="translate(982.7144030660502 884.4512084759785) rotate(0 70.980565724489 -160.7630862726861)"><path d="M115.52 -319.13 C109.17 -324.97, 105.38 -325.7, 96.48 -333.64 M115.94 -319.2 C111.11 -322.58, 105.61 -326.65, 96.36 -334.66" stroke="#000000" stroke-width="1" fill="none"></path></g></g><g stroke-linecap="round" transform="translate(795.1726171639511 648.7822063608157) rotate(0 116.18849463035349 42.43458410578353)"><path d="M0.31 -0.6 C70.1 -0.1, 144.37 -0.51, 233.06 -0.71 M0.25 0.77 C63.9 -1.78, 127.04 -1.99, 232.19 -0.8 M231.13 -1.75 C233 18.84, 234.47 36.53, 231.54 86.27 M233.28 0.28 C232.59 22.79, 233.7 45.01, 232.98 85.17 M230.99 84.74 C153.5 85.35, 74.4 85, 1.38 85.71 M232.64 85.69 C145.72 84.71, 61.56 84.13, 0.12 84.19 M1.26 84.21 C-0.48 58.75, -1.28 36.1, 0.95 -1.88 M-0.84 84.03 C-0.87 67.35, 0.18 50.05, 0.22 -0.79" stroke="#000000" stroke-width="1" fill="none"></path></g><g stroke-linecap="round"><g transform="translate(917.1606693843505 555.541844613613) rotate(0 -1.5712413836238284 45.14247260035404)"><path d="M0.22 -0.43 C-0.54 14.85, -3.1 76.63, -3.36 91.98 M-1.12 -1.7 C-1.61 13.17, -1.08 74.24, -1.15 90.03" stroke="#000000" stroke-width="1" fill="none"></path></g><g transform="translate(917.1606693843505 555.541844613613) rotate(0 -1.5712413836238284 45.14247260035404)"><path d="M-12.19 60.28 C-6.73 74.83, -3.1 85.08, -1.98 89.48 M-10.56 62.55 C-7.4 72.12, -4.05 81.25, -2.09 89.13" stroke="#000000" stroke-width="1" fill="none"></path></g><g transform="translate(917.1606693843505 555.541844613613) rotate(0 -1.5712413836238284 45.14247260035404)"><path d="M8.34 60.23 C5.62 74.84, 1.08 85.11, -1.98 89.48 M9.96 62.5 C5.97 72.16, 2.17 81.3, -2.09 89.13" stroke="#000000" stroke-width="1" fill="none"></path></g></g><g stroke-linecap="round"><g transform="translate(928.0488154857576 735.8348563665602) rotate(0 -0.020587171973829754 49.26942070211658)"><path d="M-0.43 -0.95 C-0.62 15.59, -0.7 82.85, -0.82 99.49 M1.55 1.17 C1.2 17.38, -1.03 81.98, -1.59 97.92" stroke="#000000" stroke-width="1" fill="none"></path></g><g transform="translate(928.0488154857576 735.8348563665602) rotate(0 -0.020587171973829754 49.26942070211658)"><path d="M-12.45 69.95 C-6 78.88, -3.91 87.36, -2.14 98.89 M-10.18 69.6 C-6.61 80.64, -3.6 91.13, -2.49 98.55" stroke="#000000" stroke-width="1" fill="none"></path></g><g transform="translate(928.0488154857576 735.8348563665602) rotate(0 -0.020587171973829754 49.26942070211658)"><path d="M8.06 70.66 C7.76 79.29, 3.1 87.53, -2.14 98.89 M10.32 70.31 C5.72 81.26, 0.54 91.47, -2.49 98.55" stroke="#000000" stroke-width="1" fill="none"></path></g></g><g stroke-linecap="round" transform="translate(815.9852156293659 835.2649042193189) rotate(0 79.7965772022319 42.519344056663726)"><path d="M0.55 1.77 C50.9 2.07, 100.82 0.71, 160.56 1.98 M0.2 0.47 C52.64 -1.31, 104.43 -2, 160.22 -0.63 M160.62 1.56 C159.76 19.39, 160.25 39.81, 161.49 84.91 M159.67 0.52 C159.42 33.78, 160.13 66.77, 160.01 85.28 M159.6 86.21 C124.35 87.24, 90.93 87, -1.47 85 M159.44 86 C105.94 83.59, 53.15 83.39, 0.37 84.3 M-1.18 84.07 C1.38 55.12, -1.6 21.36, -0.18 1.99 M-0.28 85.15 C0.39 66.89, -0.08 49.05, -0.86 -0.39" stroke="#000000" stroke-width="1" fill="none"></path></g><g transform="translate(951.0615683021897 751.6821170826931) rotate(0 66 30)"><text x="66" y="14" font-family="Virgil, Segoe UI Emoji" font-size="16px" fill="#000000" text-anchor="middle" style="white-space: pre;" direction="ltr">Analyse </text><text x="66" y="34" font-family="Virgil, Segoe UI Emoji" font-size="16px" fill="#000000" text-anchor="middle" style="white-space: pre;" direction="ltr">statistiques</text><text x="66" y="54" font-family="Virgil, Segoe UI Emoji" font-size="16px" fill="#000000" text-anchor="middle" style="white-space: pre;" direction="ltr">sur le feedbacks</text></g><g transform="translate(599.8818857789984 677.1215734023351) rotate(0 65 12.5)"><text x="65" y="18" font-family="Virgil, Segoe UI Emoji" font-size="20px" fill="#e67700" text-anchor="middle" style="white-space: pre;" direction="ltr">Normalization</text></g><g stroke-linecap="round" transform="translate(581.8010489883127 655.2463031695409) rotate(0 83.11174553471824 32.7046218891129)"><path d="M1.83 1.37 C58.33 0.45, 115.75 -0.94, 164.34 -1.8 M-0.88 0.04 C60.83 1.81, 121.09 0.61, 166.93 -0.32 M166.78 -1.19 C166.34 26.85, 165.36 52.82, 166.83 66.25 M166.15 0.36 C166.38 22.93, 166.18 45.49, 166.72 66.1 M168.15 63.42 C128.28 67.85, 89.28 66.21, -1.6 65.28 M165.89 65.33 C109.67 65.97, 54.84 66.93, -0.94 64.44 M-1.68 63.51 C-1.2 46.59, -1.31 27.78, -1.59 1.49 M-0.62 65.33 C0.64 51.54, 1.02 36.64, -0.36 -0.89" stroke="#e67700" stroke-width="1" fill="none"></path></g><g stroke-linecap="round"><g transform="translate(301.1525194167689 1049.7873106705747) rotate(0 -48.828307636393674 34.08984005335765)"><path d="M-0.06 -0.26 C0.22 10.47, 15.77 54.15, 1.92 64.94 C-11.94 75.73, -65.49 74.37, -83.19 64.49 C-100.89 54.61, -111.31 17.32, -104.29 5.68 C-97.28 -5.97, -51.78 -3.53, -41.1 -5.39 M-1.55 -1.44 C-0.94 9.35, 17.7 54.77, 4.03 65.91 C-9.63 77.05, -65.48 75.36, -83.56 65.41 C-101.64 55.47, -111.27 17.91, -104.44 6.23 C-97.6 -5.45, -52.95 -2.6, -42.54 -4.68" stroke="#495057" stroke-width="1" fill="none"></path></g><g transform="translate(301.1525194167689 1049.7873106705747) rotate(0 -48.828307636393674 34.08984005335765)"><path d="M-70.46 5.47 C-63.08 4.77, -53.73 -1.58, -44.29 -4.59 M-70.44 8.06 C-60.79 3.95, -50.87 -0.32, -42.27 -5.27" stroke="#495057" stroke-width="1" fill="none"></path></g><g transform="translate(301.1525194167689 1049.7873106705747) rotate(0 -48.828307636393674 34.08984005335765)"><path d="M-71.76 -15.01 C-63.87 -9.15, -54.1 -8.94, -44.29 -4.59 M-71.75 -12.42 C-61.47 -9.34, -51.1 -6.42, -42.27 -5.27" stroke="#495057" stroke-width="1" fill="none"></path></g></g><g stroke-linecap="round" transform="translate(210.0290879043232 1104.2052993119582) rotate(359.6158547181367 48 31.120001939865915)"><path d="M-1.88 -1.8 C34.61 -1.04, 65.46 -1.54, 96.09 1.03 M0.7 -0.32 C37.24 0.33, 73.48 0.68, 95.41 0.08 M96.61 0.84 C96.57 22.39, 94.11 43.65, 96.72 62.24 M96.5 0.69 C95.14 22.31, 96.18 45.63, 95 62.09 M94.4 62.12 C58.7 60.91, 21.18 61.72, -0.17 61.06 M95.06 61.27 C71.78 63.69, 46.89 61.86, -0.95 61.96 M-1.59 63.73 C-1.52 42.13, -1.22 22.34, -0.16 0.77 M-0.36 61.35 C-1.36 42.77, -1.04 23.52, -0.92 -0.2" stroke="#495057" stroke-width="1" fill="none"></path></g><g stroke-linecap="round" transform="translate(229.12391578097686 906.3265915193701) rotate(0 104.42053719667615 69.67081853405693)"><path d="M-1.6 1.11 C60.51 0.64, 121.68 1.82, 209.75 1.38 M-0.29 0.84 C72.09 -0.5, 144.55 -1.82, 208.91 0.46 M209.68 0.83 C210.16 34.43, 209.52 72.84, 208.84 140.52 M209.53 -0.74 C209.96 39.28, 210.94 76.94, 208.69 140.3 M208.73 139.99 C162.25 138.98, 117.67 137.72, -1.05 138.48 M207.98 139.26 C135.63 136.86, 59.92 136.76, -0.25 139.44 M1.49 137.62 C-1.08 100.68, -1.54 64.71, 0.77 0.22 M-0.89 138.46 C1.03 86.25, 1.15 33.35, -0.2 -0.2" stroke="#000000" stroke-width="1" fill="none"></path></g><g stroke-linecap="round"><g transform="translate(810.7333064945065 893.6859792820428) rotate(0 -180.77996433770727 39.40813170717479)"><path d="M-1.08 0.75 C-61.39 13.87, -301.89 64.63, -362.11 77.57 M0.55 0.1 C-59.35 13.46, -299.69 65.44, -359.79 78.71" stroke="#000000" stroke-width="1" fill="none"></path></g><g transform="translate(810.7333064945065 893.6859792820428) rotate(0 -180.77996433770727 39.40813170717479)"><path d="M-333.18 61.42 C-342.89 65.16, -348.62 72.4, -358.23 79.62 M-333.49 62.61 C-339.97 67.01, -348.01 70.96, -359.27 78.3" stroke="#000000" stroke-width="1" fill="none"></path></g><g transform="translate(810.7333064945065 893.6859792820428) rotate(0 -180.77996433770727 39.40813170717479)"><path d="M-328.81 81.47 C-339.54 79.59, -346.49 81.25, -358.23 79.62 M-329.12 82.66 C-336.87 81.87, -346.04 80.64, -359.27 78.3" stroke="#000000" stroke-width="1" fill="none"></path></g></g><g transform="translate(1227.8265383375533 219.88199378186755) rotate(0 112.5 40)"><text x="112.5" y="14" font-family="Virgil, Segoe UI Emoji" font-size="16px" fill="#000000" text-anchor="middle" style="white-space: pre;" direction="ltr">feedback sur la déviation</text><text x="112.5" y="34" font-family="Virgil, Segoe UI Emoji" font-size="16px" fill="#000000" text-anchor="middle" style="white-space: pre;" direction="ltr">du modèle global du</text><text x="112.5" y="54" font-family="Virgil, Segoe UI Emoji" font-size="16px" fill="#000000" text-anchor="middle" style="white-space: pre;" direction="ltr">round r-1 et les modèles de </text><text x="112.5" y="74" font-family="Virgil, Segoe UI Emoji" font-size="16px" fill="#000000" text-anchor="middle" style="white-space: pre;" direction="ltr">chaque participants</text></g><g stroke-linecap="round"><g transform="translate(1388.5782462808606 337.28384834026133) rotate(0 7.765373708789639 0.11505135936351962)"><path d="M0 0 C2.59 0.04, 12.94 0.19, 15.53 0.23 M0 0 C2.59 0.04, 12.94 0.19, 15.53 0.23" stroke="#000000" stroke-width="1" fill="none"></path></g><g transform="translate(1388.5782462808606 337.28384834026133) rotate(0 7.765373708789639 0.11505135936351962)"><path d="M8.19 2.78 C10.42 2.01, 12.64 1.23, 15.53 0.23 M8.19 2.78 C10.72 1.9, 13.25 1.02, 15.53 0.23" stroke="#000000" stroke-width="1" fill="none"></path></g><g transform="translate(1388.5782462808606 337.28384834026133) rotate(0 7.765373708789639 0.11505135936351962)"><path d="M8.27 -2.53 C10.47 -1.7, 12.68 -0.86, 15.53 0.23 M8.27 -2.53 C10.77 -1.58, 13.28 -0.63, 15.53 0.23" stroke="#000000" stroke-width="1" fill="none"></path></g></g><g transform="translate(1406.4068702524646 328.1076131655557) rotate(0 6.5 10)"><text x="0" y="14" font-family="Virgil, Segoe UI Emoji" font-size="16px" fill="#000000" text-anchor="start" style="white-space: pre;" direction="ltr">W</text></g><g transform="translate(1420.3036113405415 317.1724726372329) rotate(0 8.5 8.5)"><text x="0" y="12" font-family="Virgil, Segoe UI Emoji" font-size="13.995224236474314px" fill="#000000" text-anchor="start" style="white-space: pre;" direction="ltr">r-1</text></g><g transform="translate(1418.7089033468278 331.297029152983) rotate(0 5 10)"><text x="0" y="14" font-family="Virgil, Segoe UI Emoji" font-size="16px" fill="#000000" text-anchor="start" style="white-space: pre;" direction="ltr">s</text></g><g transform="translate(1379.752465214678 335.62552227877745) rotate(0 1.8735075738982232 7.494030295592665)"><text x="0" y="10.98806059118533" font-family="Virgil, Segoe UI Emoji" font-size="11.990448472948264px" fill="#000000" text-anchor="start" style="white-space: pre;" direction="ltr">i</text></g><g transform="translate(1366.5391704096214 327.6519823102085) rotate(0 6.5 10)"><text x="0" y="14" font-family="Virgil, Segoe UI Emoji" font-size="16px" fill="#000000" text-anchor="start" style="white-space: pre;" direction="ltr">W</text></g><g transform="translate(1378.8412035039842 315.5777646435188) rotate(0 4 10)"><text x="0" y="14" font-family="Virgil, Segoe UI Emoji" font-size="16px" fill="#000000" text-anchor="start" style="white-space: pre;" direction="ltr">r</text></g><g transform="translate(1353.69522355558 323.75021618036135) rotate(0 6.778734221714103 15.063853826031504)"><text x="0" y="21.127707652063023" font-family="Virgil, Segoe UI Emoji" font-size="24.102166121650416px" fill="#000000" text-anchor="start" style="white-space: pre;" direction="ltr">[</text></g><g transform="translate(1331.5549344873057 316.10664141994766) rotate(0 8.56916825306098 19.042596117913263)"><text x="0" y="27.085192235826568" font-family="Virgil, Segoe UI Emoji" font-size="30.468153788661255px" fill="#000000" text-anchor="start" style="white-space: pre;" direction="ltr">f</text></g><g transform="translate(1438.5509455260794 318.8459565685703) rotate(0 8.243634792816124 18.319188428480288)"><text x="0" y="25.63837685696057" font-family="Virgil, Segoe UI Emoji" font-size="29.310701485568437px" fill="#000000" text-anchor="start" style="white-space: pre;" direction="ltr">]</text></g><g stroke-linecap="round"><g transform="translate(1299.6566691549287 320.7821027425384) rotate(0 9.766003807346351 10.21813361324223)"><path d="M0 0 C1.54 3.41, 5.97 20.2, 9.22 20.44 C12.48 20.68, 17.81 4.61, 19.53 1.45 M0 0 C1.54 3.41, 5.97 20.2, 9.22 20.44 C12.48 20.68, 17.81 4.61, 19.53 1.45" stroke="#000000" stroke-width="1" fill="none"></path></g></g><g stroke-linecap="round"><g transform="translate(1303.443930670393 331.37788348158574) rotate(0 6.69152112725601 -0.36170384471654415)"><path d="M0 0 C2.23 -0.12, 11.15 -0.6, 13.38 -0.72 M0 0 C2.23 -0.12, 11.15 -0.6, 13.38 -0.72" stroke="#000000" stroke-width="1" fill="none"></path></g></g><g transform="translate(1318.1035652354722 326.80344115233356) rotate(0 6.5 10)"><text x="0" y="14" font-family="Virgil, Segoe UI Emoji" font-size="16px" fill="#000000" text-anchor="start" style="white-space: pre;" direction="ltr">i </text></g><g transform="translate(1578.4348852794888 538.7710791463926) rotate(0 91.5 37.5)"><text x="0" y="18" font-family="Virgil, Segoe UI Emoji" font-size="20px" fill="#000000" text-anchor="start" style="white-space: pre;" direction="ltr">prise en compte</text><text x="0" y="43" font-family="Virgil, Segoe UI Emoji" font-size="20px" fill="#000000" text-anchor="start" style="white-space: pre;" direction="ltr">des poids des avis</text><text x="0" y="68" font-family="Virgil, Segoe UI Emoji" font-size="20px" fill="#000000" text-anchor="start" style="white-space: pre;" direction="ltr">externes</text></g><g stroke-linecap="round"><g transform="translate(808.0361393489734 860.8370315088955) rotate(0 -252.04004082564825 -54.6328788407734)"><path d="M-1.05 0.05 C-84.93 -17.77, -420.21 -89.49, -504.05 -107.69 M0.6 -0.97 C-83.32 -19.05, -420.48 -91.47, -504.68 -109.32" stroke="#000000" stroke-width="1" fill="none"></path></g><g transform="translate(808.0361393489734 860.8370315088955) rotate(0 -252.04004082564825 -54.6328788407734)"><path d="M-474.88 -112.44 C-480.49 -111.83, -489.94 -110.35, -505.33 -107.43 M-475.56 -113.38 C-483.13 -112.58, -491.76 -110.64, -504.26 -108.9" stroke="#000000" stroke-width="1" fill="none"></path></g><g transform="translate(808.0361393489734 860.8370315088955) rotate(0 -252.04004082564825 -54.6328788407734)"><path d="M-479.17 -92.37 C-483.63 -96.49, -492.07 -99.77, -505.33 -107.43 M-479.85 -93.31 C-486.34 -98.41, -493.71 -102.36, -504.26 -108.9" stroke="#000000" stroke-width="1" fill="none"></path></g></g><g transform="translate(1560.586109308069 614.1640058571656) rotate(0 135 37.5)"><text x="135" y="18" font-family="Virgil, Segoe UI Emoji" font-size="20px" fill="#000000" text-anchor="middle" style="white-space: pre;" direction="ltr">Deux composantes : </text><text x="135" y="43" font-family="Virgil, Segoe UI Emoji" font-size="20px" fill="#000000" text-anchor="middle" style="white-space: pre;" direction="ltr">- confiance dans l'émeteur </text><text x="135" y="68" font-family="Virgil, Segoe UI Emoji" font-size="20px" fill="#000000" text-anchor="middle" style="white-space: pre;" direction="ltr"></text></g><g transform="translate(311.5765230662728 676.7900587077063) rotate(0 80.5 37.5)"><text x="0" y="18" font-family="Virgil, Segoe UI Emoji" font-size="20px" fill="#e67700" text-anchor="start" style="white-space: pre;" direction="ltr">prise en compte </text><text x="0" y="43" font-family="Virgil, Segoe UI Emoji" font-size="20px" fill="#e67700" text-anchor="start" style="white-space: pre;" direction="ltr">pour choix avis</text><text x="0" y="68" font-family="Virgil, Segoe UI Emoji" font-size="20px" fill="#e67700" text-anchor="start" style="white-space: pre;" direction="ltr">externe</text></g><g stroke-linecap="round" transform="translate(1498.6669757049117 551.7338427863826) rotate(0 26.677455017877264 25.896294218207913)"><path d="M22.09 0.5 C27.36 -0.82, 35.33 0.68, 40.11 3.31 C44.9 5.95, 48.75 11.26, 50.82 16.29 C52.9 21.32, 54.13 28.18, 52.56 33.5 C50.99 38.81, 46.27 45.09, 41.4 48.17 C36.54 51.25, 29.09 52.92, 23.37 51.95 C17.65 50.99, 10.99 46.53, 7.09 42.4 C3.18 38.26, 0.18 32.46, -0.06 27.15 C-0.3 21.84, 1.07 14.92, 5.66 10.53 C10.25 6.15, 22.67 2.22, 27.48 0.83 C32.29 -0.55, 34.62 1.94, 34.51 2.23 M30.56 1.75 C35.53 2.52, 41.93 5.15, 45.53 9.08 C49.12 13, 51.74 19.97, 52.15 25.29 C52.57 30.62, 51.23 36.79, 48 41.05 C44.77 45.3, 38.49 49.7, 32.77 50.81 C27.05 51.92, 18.96 50.15, 13.67 47.69 C8.39 45.23, 2.98 41.31, 1.06 36.05 C-0.86 30.79, 0.42 21.52, 2.15 16.11 C3.88 10.7, 6.41 6.44, 11.44 3.59 C16.46 0.75, 29.28 -0.25, 32.28 -0.95 C35.29 -1.65, 29.84 -1.26, 29.45 -0.6" stroke="#000000" stroke-width="1" fill="none"></path></g><g transform="translate(1503.6669757049117 565.1301370045906) rotate(0 21.5 12.5)"><text x="21.5" y="18" font-family="Virgil, Segoe UI Emoji" font-size="20px" fill="#000000" text-anchor="middle" style="white-space: pre;" direction="ltr">1</text></g><g stroke-linecap="round" transform="translate(591.2524320770881 944.6974813942829) rotate(0 26.677455017877264 25.896294218207913)"><path d="M23.28 0.62 C28.32 -0.54, 34.86 1, 39.71 3.71 C44.56 6.43, 50.29 11.66, 52.38 16.93 C54.46 22.21, 54.27 30.04, 52.23 35.36 C50.19 40.69, 45.19 46.37, 40.15 48.9 C35.1 51.43, 27.66 51.56, 21.96 50.52 C16.26 49.48, 9.61 46.71, 5.95 42.65 C2.29 38.59, -0.05 31.63, 0 26.16 C0.05 20.69, 1.66 14.06, 6.25 9.82 C10.85 5.57, 23.45 2.17, 27.55 0.7 C31.65 -0.78, 30.92 0.48, 30.88 0.96 M12.68 3.36 C17.13 0.3, 24.88 -0.46, 30.78 0.42 C36.68 1.3, 44.17 4.39, 48.09 8.66 C52.01 12.93, 54.55 20.48, 54.29 26.06 C54.03 31.64, 50.61 37.77, 46.55 42.15 C42.48 46.53, 35.43 51.59, 29.91 52.33 C24.4 53.06, 18.47 49.63, 13.47 46.58 C8.47 43.52, 1.62 39.23, -0.07 34 C-1.75 28.76, 1.22 20.54, 3.34 15.16 C5.46 9.79, 10.93 3.63, 12.67 1.73 C14.41 -0.17, 13.43 3.09, 13.77 3.76" stroke="#000000" stroke-width="1" fill="none"></path></g><g transform="translate(596.2524320770881 958.0937756124908) rotate(0 21.5 12.5)"><text x="21.5" y="18" font-family="Virgil, Segoe UI Emoji" font-size="20px" fill="#000000" text-anchor="middle" style="white-space: pre;" direction="ltr">1</text></g><g stroke-linecap="round"><g transform="translate(292.4694320884373 904.3584685100482) rotate(0 -29.818866683311853 -46.513456813864536)"><path d="M-0.39 1.14 C-10.35 -14.44, -50.35 -76.68, -60.26 -92.61 M1.61 0.69 C-8.47 -15.27, -50.91 -78.47, -61.25 -94.16" stroke="#000000" stroke-width="1" fill="none"></path></g><g transform="translate(292.4694320884373 904.3584685100482) rotate(0 -29.818866683311853 -46.513456813864536)"><path d="M-35.19 -76.51 C-41.65 -80.5, -50.87 -85.48, -60.21 -94.99 M-36.67 -76.14 C-46.66 -82.76, -54.18 -89.08, -60.66 -94.37" stroke="#000000" stroke-width="1" fill="none"></path></g><g transform="translate(292.4694320884373 904.3584685100482) rotate(0 -29.818866683311853 -46.513456813864536)"><path d="M-52.28 -65.14 C-54.4 -72.01, -59.21 -79.92, -60.21 -94.99 M-53.75 -64.77 C-57.62 -75.55, -59 -85.97, -60.66 -94.37" stroke="#000000" stroke-width="1" fill="none"></path></g></g><g stroke-linecap="round" transform="translate(937.1148841263503 490.2650740663255) rotate(0 26.677455017877264 25.896294218207913)"><path d="M38.38 3.1 C43.3 5.3, 48.22 10.84, 50.6 15.89 C52.98 20.93, 54.07 28.1, 52.65 33.37 C51.23 38.65, 47 44.53, 42.08 47.56 C37.17 50.6, 28.85 52.18, 23.16 51.58 C17.46 50.98, 11.66 47.95, 7.91 43.95 C4.16 39.95, 1 33.03, 0.66 27.58 C0.32 22.13, 2.5 15.83, 5.86 11.24 C9.22 6.65, 14.75 1.05, 20.83 0.05 C26.92 -0.94, 38.08 4.05, 42.36 5.27 C46.65 6.49, 46.83 6.91, 46.55 7.37 M15.81 2.75 C20.43 0.68, 27.59 0.54, 33.02 1.97 C38.44 3.41, 45.13 7.03, 48.35 11.36 C51.57 15.69, 52.71 22.3, 52.31 27.96 C51.91 33.62, 50.18 41.58, 45.97 45.3 C41.75 49.02, 32.9 49.79, 27.04 50.28 C21.18 50.78, 15.38 51.53, 10.79 48.29 C6.2 45.04, 1.09 36.52, -0.49 30.82 C-2.07 25.11, -1.44 18.9, 1.32 14.05 C4.08 9.2, 13.55 3.81, 16.07 1.71 C18.59 -0.38, 16.11 1.23, 16.45 1.49" stroke="#000000" stroke-width="1" fill="none"></path></g><g transform="translate(942.1148841263503 503.6613682845334) rotate(0 21.5 12.5)"><text x="21.5" y="18" font-family="Virgil, Segoe UI Emoji" font-size="20px" fill="#000000" text-anchor="middle" style="white-space: pre;" direction="ltr">2</text></g><g stroke-linecap="round" transform="translate(1503.3189332991515 738.6630401160317) rotate(0 26.677455017877264 25.896294218207913)"><path d="M18.47 1.73 C23.6 -0.14, 32.01 0.37, 37.41 2.48 C42.81 4.59, 48.46 9.53, 50.87 14.39 C53.27 19.25, 53.15 26.29, 51.85 31.65 C50.56 37.02, 47.42 43.27, 43.08 46.58 C38.75 49.9, 31.49 51.76, 25.86 51.55 C20.23 51.34, 13.46 49.2, 9.29 45.33 C5.13 41.46, 1.72 33.85, 0.89 28.31 C0.06 22.77, 0.13 16.97, 4.29 12.1 C8.45 7.22, 21.43 0.78, 25.84 -0.94 C30.24 -2.65, 30.99 1.19, 30.72 1.81 M15.22 2.98 C20.02 0.51, 28.55 -0.33, 34.05 1.03 C39.55 2.38, 44.88 6.32, 48.2 11.12 C51.52 15.92, 54.77 24.45, 53.97 29.83 C53.17 35.22, 47.76 39.53, 43.41 43.43 C39.06 47.33, 33.55 52.94, 27.87 53.25 C22.19 53.56, 14.08 48.95, 9.31 45.28 C4.54 41.61, 0.28 36.52, -0.75 31.24 C-1.79 25.96, 0.2 18.65, 3.1 13.59 C6 8.52, 14.22 2.91, 16.65 0.84 C19.07 -1.22, 17.63 0.8, 17.65 1.21" stroke="#000000" stroke-width="1" fill="none"></path></g><g transform="translate(1508.3189332991515 752.0593343342396) rotate(0 21.5 12.5)"><text x="21.5" y="18" font-family="Virgil, Segoe UI Emoji" font-size="20px" fill="#000000" text-anchor="middle" style="white-space: pre;" direction="ltr">2</text></g><g transform="translate(1584.6197425257528 741.6240007920117) rotate(0 233 112.5)"><text x="0" y="18" font-family="Virgil, Segoe UI Emoji" font-size="20px" fill="#000000" text-anchor="start" style="white-space: pre;" direction="ltr">Analyse du feedback</text><text x="0" y="43" font-family="Virgil, Segoe UI Emoji" font-size="20px" fill="#000000" text-anchor="start" style="white-space: pre;" direction="ltr">    - est-il disruptif ? </text><text x="0" y="68" font-family="Virgil, Segoe UI Emoji" font-size="20px" fill="#000000" text-anchor="start" style="white-space: pre;" direction="ltr">        - si non : on le prend en compte</text><text x="0" y="93" font-family="Virgil, Segoe UI Emoji" font-size="20px" fill="#000000" text-anchor="start" style="white-space: pre;" direction="ltr">        - si oui : on l'écarte temporairement </text><text x="0" y="118" font-family="Virgil, Segoe UI Emoji" font-size="20px" fill="#000000" text-anchor="start" style="white-space: pre;" direction="ltr">                   en attente de confirmation </text><text x="0" y="143" font-family="Virgil, Segoe UI Emoji" font-size="20px" fill="#000000" text-anchor="start" style="white-space: pre;" direction="ltr">                    par les feedbacks futurs </text><text x="0" y="168" font-family="Virgil, Segoe UI Emoji" font-size="20px" fill="#000000" text-anchor="start" style="white-space: pre;" direction="ltr">                    ou extérieurs</text><text x="0" y="193" font-family="Virgil, Segoe UI Emoji" font-size="20px" fill="#000000" text-anchor="start" style="white-space: pre;" direction="ltr">    - prise en compte de la confiance envers </text><text x="0" y="218" font-family="Virgil, Segoe UI Emoji" font-size="20px" fill="#000000" text-anchor="start" style="white-space: pre;" direction="ltr">        l'émetteur du feedback</text></g><g stroke-linecap="round"><g transform="translate(378.3946144445722 1053.4648334451217) rotate(0 1.6047940672838195 160.89210133432357)"><path d="M0.1 0.62 C0.8 54.39, 3.64 268.37, 4.52 321.88 M-1.31 -0.1 C-0.84 53.39, 2.29 266.86, 3.31 320.14" stroke="#000000" stroke-width="1" fill="none"></path></g><g transform="translate(378.3946144445722 1053.4648334451217) rotate(0 1.6047940672838195 160.89210133432357)"><path d="M-6.37 291.29 C-2.86 301.9, 0.29 311.3, 3.8 318.5 M-6.82 291.91 C-3.36 300.81, -0.35 307.76, 3.29 320.45" stroke="#000000" stroke-width="1" fill="none"></path></g><g transform="translate(378.3946144445722 1053.4648334451217) rotate(0 1.6047940672838195 160.89210133432357)"><path d="M14.15 290.96 C10.93 301.69, 7.36 311.2, 3.8 318.5 M13.7 291.58 C11.16 300.57, 8.18 307.62, 3.29 320.45" stroke="#000000" stroke-width="1" fill="none"></path></g></g><g transform="translate(473.23469357495287 1285.5808852485793) rotate(0 414.5 15)"><text x="0" y="21" font-family="Virgil, Segoe UI Emoji" font-size="24.233017484051484px" fill="#000000" text-anchor="start" style="white-space: pre;" direction="ltr"> poid unique par participant : pondération dans l'aggration du modèle</text></g><g transform="translate(466.6327176580862 1302.2674647401059) rotate(0 4.5 7.5)"><text x="0" y="10" font-family="Virgil, Segoe UI Emoji" font-size="11.383088057152326px" fill="#000000" text-anchor="start" style="white-space: pre;" direction="ltr">B</text></g><g transform="translate(453.06830354098474 1290.5240944026968) rotate(0 6 12.5)"><text x="0" y="18" font-family="Virgil, Segoe UI Emoji" font-size="20px" fill="#000000" text-anchor="start" style="white-space: pre;" direction="ltr">F</text></g><g stroke-linecap="round"><g transform="translate(613.3480023247162 173.59717814173996) rotate(0 151.4480664986413 129.70366128072124)"><path d="M0.45 -0.36 C51.11 42.98, 253.21 216.24, 303.67 259.69 M-0.77 -1.59 C49.77 41.95, 252.28 217.11, 302.78 261" stroke="#000000" stroke-width="1" fill="none"></path></g><g transform="translate(613.3480023247162 173.59717814173996) rotate(0 151.4480664986413 129.70366128072124)"><path d="M274.16 250.49 C281.7 252.56, 290.47 257.11, 302.87 261.8 M274.22 250.99 C281.96 251.83, 289 255.25, 301.94 261.8" stroke="#000000" stroke-width="1" fill="none"></path></g><g transform="translate(613.3480023247162 173.59717814173996) rotate(0 151.4480664986413 129.70366128072124)"><path d="M287.6 234.98 C291.41 241.36, 296.49 250.17, 302.87 261.8 M287.66 235.48 C292.23 240.21, 295.97 247.44, 301.94 261.8" stroke="#000000" stroke-width="1" fill="none"></path></g></g><g transform="translate(480.106320685984 76.40311026154245) rotate(0 76.5 35.5)"><text x="76.5" y="25.5" font-family="Virgil, Segoe UI Emoji" font-size="28px" fill="#000000" text-anchor="middle" style="white-space: pre;" direction="ltr">Participant</text><text x="76.5" y="61" font-family="Virgil, Segoe UI Emoji" font-size="28px" fill="#000000" text-anchor="middle" style="white-space: pre;" direction="ltr">1</text></g><g stroke-linecap="round" transform="translate(457.79389502748427 31.207597109281778) rotate(0 93.49682463033014 79.29418684075176)"><path d="M68.26 2.66 C79.58 -1.44, 94.76 -1.58, 107.01 -0.03 C119.26 1.52, 131.01 6.32, 141.75 11.95 C152.5 17.58, 164.13 24.93, 171.45 33.76 C178.78 42.59, 183.66 54.31, 185.7 64.92 C187.75 75.53, 186.69 87.07, 183.7 97.43 C180.72 107.79, 175.49 118.35, 167.77 127.08 C160.05 135.81, 148.72 144.48, 137.4 149.81 C126.08 155.14, 112.53 158.4, 99.86 159.05 C87.19 159.71, 73.17 157.42, 61.4 153.75 C49.62 150.08, 38.38 144.4, 29.21 137.03 C20.04 129.65, 11.25 119.48, 6.39 109.5 C1.53 99.51, -0.34 87.73, 0.05 77.11 C0.43 66.49, 3.17 55.5, 8.71 45.78 C14.24 36.06, 21.25 26.28, 33.24 18.79 C45.23 11.3, 70.36 3.86, 80.67 0.84 C90.97 -2.19, 94.74 -0.54, 95.09 0.66 M94.67 -1.29 C106.65 -2.35, 122.62 2.77, 133.96 7.41 C145.31 12.05, 154.79 18.31, 162.75 26.54 C170.7 34.78, 177.52 46.25, 181.69 56.85 C185.86 67.44, 189.31 79.72, 187.74 90.09 C186.18 100.47, 179.02 110.23, 172.31 119.1 C165.59 127.97, 157.81 136.85, 147.44 143.33 C137.07 149.82, 122.43 155.82, 110.09 158 C97.76 160.18, 85.72 158.99, 73.43 156.4 C61.14 153.8, 46.68 148.96, 36.36 142.44 C26.04 135.92, 17.44 126.85, 11.5 117.29 C5.56 107.73, 1.71 95.66, 0.7 85.07 C-0.31 74.49, 1.54 63.71, 5.42 53.78 C9.3 43.84, 15.42 33.44, 23.99 25.46 C32.56 17.48, 44.88 9.99, 56.85 5.9 C68.81 1.8, 89.41 1.45, 95.77 0.88 C102.13 0.31, 95.39 1.32, 95.01 2.47" stroke="#000000" stroke-width="1" fill="none"></path></g><g transform="translate(1318.4218335568676 1287.9384213709727) rotate(0 62 12.5)"><text x="0" y="18" font-family="Virgil, Segoe UI Emoji" font-size="20px" fill="#000000" text-anchor="start" style="white-space: pre;" direction="ltr">entre 0 et 1</text></g><g stroke-linecap="round"><g transform="translate(1233.1830473651862 160.3773675566306) rotate(0 -78.13347796365065 149.43687221139828)"><path d="M0.34 1.04 C-25.7 50.56, -129.48 247.6, -155.38 297.14 M-0.94 0.54 C-27.26 50.21, -130.77 249.07, -156.61 298.34" stroke="#000000" stroke-width="1" fill="none"></path></g><g transform="translate(1233.1830473651862 160.3773675566306) rotate(0 -78.13347796365065 149.43687221139828)"><path d="M-150.92 267.72 C-155.2 279.3, -154.86 291.23, -156.02 296.58 M-152.38 268.91 C-153.8 279.55, -156.15 289.6, -156.32 299.05" stroke="#000000" stroke-width="1" fill="none"></path></g><g transform="translate(1233.1830473651862 160.3773675566306) rotate(0 -78.13347796365065 149.43687221139828)"><path d="M-132.73 277.22 C-143.79 285.31, -150.22 293.71, -156.02 296.58 M-134.19 278.41 C-141.86 285.78, -150.46 292.56, -156.32 299.05" stroke="#000000" stroke-width="1" fill="none"></path></g></g><g transform="translate(812.334547335126 180.76416263642022) rotate(0 148.5 40)"><text x="148.5" y="14" font-family="Virgil, Segoe UI Emoji" font-size="16px" fill="#000000" text-anchor="middle" style="white-space: pre;" direction="ltr">feedback sur la déviation</text><text x="148.5" y="34" font-family="Virgil, Segoe UI Emoji" font-size="16px" fill="#000000" text-anchor="middle" style="white-space: pre;" direction="ltr">du modèle de chaque participant </text><text x="148.5" y="54" font-family="Virgil, Segoe UI Emoji" font-size="16px" fill="#000000" text-anchor="middle" style="white-space: pre;" direction="ltr">au round r par rapport à son propre </text><text x="148.5" y="74" font-family="Virgil, Segoe UI Emoji" font-size="16px" fill="#000000" text-anchor="middle" style="white-space: pre;" direction="ltr">modèle au round r-1</text></g><g transform="translate(1057.8087875954166 271.3036654288162) rotate(0 6.5 10)"><text x="0" y="14" font-family="Virgil, Segoe UI Emoji" font-size="16px" fill="#000000" text-anchor="start" style="white-space: pre;" direction="ltr">W</text></g><g transform="translate(1071.7055286834934 260.3685249004934) rotate(0 8.5 8.5)"><text x="0" y="12" font-family="Virgil, Segoe UI Emoji" font-size="13.995224236474314px" fill="#000000" text-anchor="start" style="white-space: pre;" direction="ltr">r-1</text></g><g transform="translate(1070.006677798262 274.4930814162435) rotate(0 2.5 10)"><text x="0" y="14" font-family="Virgil, Segoe UI Emoji" font-size="16px" fill="#000000" text-anchor="start" style="white-space: pre;" direction="ltr">i</text></g><g transform="translate(1031.15438255763 278.821574542038) rotate(0 1.8735075738982232 7.494030295592665)"><text x="0" y="10.98806059118533" font-family="Virgil, Segoe UI Emoji" font-size="11.990448472948264px" fill="#000000" text-anchor="start" style="white-space: pre;" direction="ltr">i</text></g><g transform="translate(1017.9410877525734 270.848034573469) rotate(0 6.5 10)"><text x="0" y="14" font-family="Virgil, Segoe UI Emoji" font-size="16px" fill="#000000" text-anchor="start" style="white-space: pre;" direction="ltr">W</text></g><g transform="translate(1030.243120846936 258.7738169067793) rotate(0 4 10)"><text x="0" y="14" font-family="Virgil, Segoe UI Emoji" font-size="16px" fill="#000000" text-anchor="start" style="white-space: pre;" direction="ltr">r</text></g><g transform="translate(1005.097140898532 266.9462684436219) rotate(0 6.778734221714103 15.063853826031504)"><text x="0" y="21.127707652063023" font-family="Virgil, Segoe UI Emoji" font-size="24.102166121650416px" fill="#000000" text-anchor="start" style="white-space: pre;" direction="ltr">[</text></g><g transform="translate(982.9568518302576 259.3026936832082) rotate(0 8.56916825306098 19.042596117913263)"><text x="0" y="27.085192235826568" font-family="Virgil, Segoe UI Emoji" font-size="30.468153788661255px" fill="#000000" text-anchor="start" style="white-space: pre;" direction="ltr">f</text></g><g transform="translate(1089.9528628690314 262.0420088318308) rotate(0 8.243634792816238 18.319188428480288)"><text x="0" y="25.63837685696057" font-family="Virgil, Segoe UI Emoji" font-size="29.310701485568437px" fill="#000000" text-anchor="start" style="white-space: pre;" direction="ltr">]</text></g><g stroke-linecap="round"><g transform="translate(951.0585864978807 263.97815500579895) rotate(0 9.766003807346351 10.21813361324223)"><path d="M0 0 C1.54 3.41, 5.97 20.2, 9.22 20.44 C12.48 20.68, 17.81 4.61, 19.53 1.45 M0 0 C1.54 3.41, 5.97 20.2, 9.22 20.44 C12.48 20.68, 17.81 4.61, 19.53 1.45" stroke="#000000" stroke-width="1" fill="none"></path></g></g><g stroke-linecap="round"><g transform="translate(954.845848013345 274.57393574484627) rotate(0 6.69152112725601 -0.36170384471654415)"><path d="M0 0 C2.23 -0.12, 11.15 -0.6, 13.38 -0.72 M0 0 C2.23 -0.12, 11.15 -0.6, 13.38 -0.72" stroke="#000000" stroke-width="1" fill="none"></path></g></g><g transform="translate(969.5054825784241 269.9994934155941) rotate(0 6.5 10)"><text x="0" y="14" font-family="Virgil, Segoe UI Emoji" font-size="16px" fill="#000000" text-anchor="start" style="white-space: pre;" direction="ltr">i </text></g><g stroke-linecap="round"><g transform="translate(1040.0992455331889 279.5459765139692) rotate(0 7.765373708789639 0.11505135936351962)"><path d="M0 0 C2.59 0.04, 12.94 0.19, 15.53 0.23 M0 0 C2.59 0.04, 12.94 0.19, 15.53 0.23" stroke="#000000" stroke-width="1" fill="none"></path></g><g transform="translate(1040.0992455331889 279.5459765139692) rotate(0 7.765373708789639 0.11505135936351962)"><path d="M8.19 2.78 C10.88 1.84, 13.57 0.91, 15.53 0.23 M8.19 2.78 C9.85 2.2, 11.5 1.63, 15.53 0.23" stroke="#000000" stroke-width="1" fill="none"></path></g><g transform="translate(1040.0992455331889 279.5459765139692) rotate(0 7.765373708789639 0.11505135936351962)"><path d="M8.27 -2.53 C10.93 -1.52, 13.59 -0.51, 15.53 0.23 M8.27 -2.53 C9.91 -1.91, 11.55 -1.29, 15.53 0.23" stroke="#000000" stroke-width="1" fill="none"></path></g></g><g transform="translate(447.3476105165455 280.8939503682136) rotate(0 132.5 40)"><text x="132.5" y="14" font-family="Virgil, Segoe UI Emoji" font-size="16px" fill="#000000" text-anchor="middle" style="white-space: pre;" direction="ltr">feedback (score accuracy)</text><text x="132.5" y="34" font-family="Virgil, Segoe UI Emoji" font-size="16px" fill="#000000" text-anchor="middle" style="white-space: pre;" direction="ltr">sur les modèles des </text><text x="132.5" y="54" font-family="Virgil, Segoe UI Emoji" font-size="16px" fill="#000000" text-anchor="middle" style="white-space: pre;" direction="ltr">autres appliqués aux données</text><text x="132.5" y="74" font-family="Virgil, Segoe UI Emoji" font-size="16px" fill="#000000" text-anchor="middle" style="white-space: pre;" direction="ltr"> locale du participant au round r</text></g><g transform="translate(456.5736546107255 1324.6802957864352) rotate(0 267.5 15)"><text x="0" y="21" font-family="Virgil, Segoe UI Emoji" font-size="23.52725504817354px" fill="#5c940d" text-anchor="start" style="white-space: pre;" direction="ltr">subset de participants aux rounds suivants ?</text></g><g transform="translate(460.9827234209424 1364.361915078387) rotate(0 108 15)"><text x="0" y="21" font-family="Virgil, Segoe UI Emoji" font-size="23.52725504817354px" fill="#5c940d" text-anchor="start" style="white-space: pre;" direction="ltr">Qui testera qui ? </text></g><g transform="translate(502.8688771180023 1393.7557071464994) rotate(0 135.5 12.5)"><text x="0" y="18" font-family="Virgil, Segoe UI Emoji" font-size="20px" fill="#5c940d" text-anchor="start" style="white-space: pre;" direction="ltr">Clusters de participants ? </text></g><g transform="translate(1546.8304793479087 1061.2397334965153) rotate(0 258.5 80)"><text x="0" y="14" font-family="Virgil, Segoe UI Emoji" font-size="16px" fill="#000000" text-anchor="start" style="white-space: pre;" direction="ltr">Notation : </text><text x="0" y="34" font-family="Virgil, Segoe UI Emoji" font-size="16px" fill="#000000" text-anchor="start" style="white-space: pre;" direction="ltr">-     : matrice des poids du modèle au round r</text><text x="0" y="54" font-family="Virgil, Segoe UI Emoji" font-size="16px" fill="#000000" text-anchor="start" style="white-space: pre;" direction="ltr"></text><text x="0" y="74" font-family="Virgil, Segoe UI Emoji" font-size="16px" fill="#000000" text-anchor="start" style="white-space: pre;" direction="ltr">-     : matrice des poids calculée par le participant i au round r</text><text x="0" y="94" font-family="Virgil, Segoe UI Emoji" font-size="16px" fill="#000000" text-anchor="start" style="white-space: pre;" direction="ltr"></text><text x="0" y="114" font-family="Virgil, Segoe UI Emoji" font-size="16px" fill="#000000" text-anchor="start" style="white-space: pre;" direction="ltr">-     : matrice des poids aggrégée par le serveur au round r</text><text x="0" y="134" font-family="Virgil, Segoe UI Emoji" font-size="16px" fill="#000000" text-anchor="start" style="white-space: pre;" direction="ltr"></text><text x="0" y="154" font-family="Virgil, Segoe UI Emoji" font-size="16px" fill="#000000" text-anchor="start" style="white-space: pre;" direction="ltr">- D  : Ensemble des données du participant i</text></g><g transform="translate(1568.849230262305 1160.3026151956765) rotate(0 6.5 10)"><text x="0" y="14" font-family="Virgil, Segoe UI Emoji" font-size="16px" fill="#000000" text-anchor="start" style="white-space: pre;" direction="ltr">W</text></g><g transform="translate(1582.7459713503818 1149.3674746673541) rotate(0 3.5 9)"><text x="0" y="13" font-family="Virgil, Segoe UI Emoji" font-size="13.995224236474314px" fill="#000000" text-anchor="start" style="white-space: pre;" direction="ltr">r</text></g><g transform="translate(1581.151263356668 1163.4920311831038) rotate(0 5 10)"><text x="0" y="14" font-family="Virgil, Segoe UI Emoji" font-size="16px" fill="#000000" text-anchor="start" style="white-space: pre;" direction="ltr">s</text></g><g transform="translate(1576.8362443322953 1121.60859198885) rotate(0 2.5 10)"><text x="0" y="14" font-family="Virgil, Segoe UI Emoji" font-size="16px" fill="#000000" text-anchor="start" style="white-space: pre;" direction="ltr">i</text></g><g transform="translate(1564.5342112379317 1118.4191760014228) rotate(0 6.5 10)"><text x="0" y="14" font-family="Virgil, Segoe UI Emoji" font-size="16px" fill="#000000" text-anchor="start" style="white-space: pre;" direction="ltr">W</text></g><g transform="translate(1578.4309523260085 1107.484035473099) rotate(0 3.5 9)"><text x="0" y="13" font-family="Virgil, Segoe UI Emoji" font-size="13.995224236474314px" fill="#000000" text-anchor="start" style="white-space: pre;" direction="ltr">r</text></g><g transform="translate(1562.4348204536705 1082.200533635209) rotate(0 6.5 10)"><text x="0" y="14" font-family="Virgil, Segoe UI Emoji" font-size="16px" fill="#000000" text-anchor="start" style="white-space: pre;" direction="ltr">W</text></g><g transform="translate(1576.3315615417464 1071.2653931068862) rotate(0 3.5 9)"><text x="0" y="13" font-family="Virgil, Segoe UI Emoji" font-size="13.995224236474314px" fill="#000000" text-anchor="start" style="white-space: pre;" direction="ltr">r</text></g><g transform="translate(609.2869852776435 257.3048880275519) rotate(0 2 7.5)"><text x="0" y="11" font-family="Virgil, Segoe UI Emoji" font-size="11.990448472948264px" fill="#000000" text-anchor="start" style="white-space: pre;" direction="ltr">i</text></g><g transform="translate(596.1811928122183 249.33134805898226) rotate(0 26.5 10)"><text x="0" y="14" font-family="Virgil, Segoe UI Emoji" font-size="16px" fill="#000000" text-anchor="start" style="white-space: pre;" direction="ltr">W (D )</text></g><g transform="translate(608.3757235669495 237.25713039229367) rotate(0 4 10)"><text x="0" y="14" font-family="Virgil, Segoe UI Emoji" font-size="16px" fill="#000000" text-anchor="start" style="white-space: pre;" direction="ltr">r</text></g><g transform="translate(583.2297436185454 245.42958192913648) rotate(0 6.778734221714103 15.063853826031504)"><text x="0" y="21.127707652063023" font-family="Virgil, Segoe UI Emoji" font-size="24.102166121650416px" fill="#000000" text-anchor="start" style="white-space: pre;" direction="ltr">[</text></g><g transform="translate(561.0894545502711 237.7860071687228) rotate(0 8.56916825306098 19.042596117913263)"><text x="0" y="27.085192235826568" font-family="Virgil, Segoe UI Emoji" font-size="30.468153788661255px" fill="#000000" text-anchor="start" style="white-space: pre;" direction="ltr">f</text></g><g transform="translate(642.0990039734424 242.3810241097258) rotate(0 8.243634792816238 18.319188428480288)"><text x="0" y="25.63837685696057" font-family="Virgil, Segoe UI Emoji" font-size="29.310701485568437px" fill="#000000" text-anchor="start" style="white-space: pre;" direction="ltr">]</text></g><g stroke-linecap="round"><g transform="translate(529.1911892178941 242.4614684913131) rotate(0 9.766003807346351 10.21813361324223)"><path d="M0 0 C1.54 3.41, 5.97 20.2, 9.22 20.44 C12.48 20.68, 17.81 4.61, 19.53 1.45 M0 0 C1.54 3.41, 5.97 20.2, 9.22 20.44 C12.48 20.68, 17.81 4.61, 19.53 1.45" stroke="#000000" stroke-width="1" fill="none"></path></g></g><g stroke-linecap="round"><g transform="translate(532.9784507333584 253.05724923035996) rotate(0 6.69152112725601 -0.36170384471654415)"><path d="M0 0 C2.23 -0.12, 11.15 -0.6, 13.38 -0.72 M0 0 C2.23 -0.12, 11.15 -0.6, 13.38 -0.72" stroke="#000000" stroke-width="1" fill="none"></path></g></g><g transform="translate(547.6380852984375 248.48280690110823) rotate(0 6.5 10)"><text x="0" y="14" font-family="Virgil, Segoe UI Emoji" font-size="16px" fill="#000000" text-anchor="start" style="white-space: pre;" direction="ltr">i </text></g><g transform="translate(10 1047.931331533383) rotate(0 0.9878345478575739 3.9513381914302954)"><text x="0" y="5.902676382860591" font-family="Virgil, Segoe UI Emoji" font-size="6.322141106288471px" fill="#000000" text-anchor="start" style="white-space: pre;" direction="ltr">1</text></g><g transform="translate(1581.4550560587468 1205.6640650093068) rotate(0 2.947747184420905 10.808406342876651)"><text x="0" y="15.616812685753299" font-family="Virgil, Segoe UI Emoji" font-size="16.67302091436038px" fill="#000000" text-anchor="start" style="white-space: pre;" direction="ltr">i</text></g><g transform="translate(530.6874159159083 563.4270854049244) rotate(0 111 30)"><text x="0" y="14" font-family="Virgil, Segoe UI Emoji" font-size="16px" fill="#e67700" text-anchor="start" style="white-space: pre;" direction="ltr">pour l'instant tout le monde</text><text x="0" y="34" font-family="Virgil, Segoe UI Emoji" font-size="16px" fill="#e67700" text-anchor="start" style="white-space: pre;" direction="ltr"> participe à part égale</text><text x="0" y="54" font-family="Virgil, Segoe UI Emoji" font-size="16px" fill="#e67700" text-anchor="start" style="white-space: pre;" direction="ltr">Non nécessaire</text></g><g transform="translate(1640.3208657101402 975.2125297435218) rotate(0 179 30)"><text x="0" y="14" font-family="Virgil, Segoe UI Emoji" font-size="16px" fill="#e67700" text-anchor="start" style="white-space: pre;" direction="ltr">Cohérence du feedback vis à vis des autres </text><text x="0" y="34" font-family="Virgil, Segoe UI Emoji" font-size="16px" fill="#e67700" text-anchor="start" style="white-space: pre;" direction="ltr">feedbacks reçus sur le même modèle évalué</text><text x="0" y="54" font-family="Virgil, Segoe UI Emoji" font-size="16px" fill="#e67700" text-anchor="start" style="white-space: pre;" direction="ltr"></text></g><g transform="translate(221.1347061957531 632.945288027581) rotate(0 57.5 10)"><text x="0" y="14" font-family="Virgil, Segoe UI Emoji" font-size="16px" fill="#e67700" text-anchor="start" style="white-space: pre;" direction="ltr">écarté car HS</text></g><g transform="translate(155.86369678280062 1180.9302570034156) rotate(0 113.5 30)"><text x="113.5" y="14" font-family="Virgil, Segoe UI Emoji" font-size="16px" fill="#495057" text-anchor="middle" style="white-space: pre;" direction="ltr">Comportement osciallatoires </text><text x="113.5" y="34" font-family="Virgil, Segoe UI Emoji" font-size="16px" fill="#495057" text-anchor="middle" style="white-space: pre;" direction="ltr">/ collusion opportunistes</text><text x="113.5" y="54" font-family="Virgil, Segoe UI Emoji" font-size="16px" fill="#495057" text-anchor="middle" style="white-space: pre;" direction="ltr">moins probables.</text></g><g stroke-linecap="round" transform="translate(21.73804545312214 10) rotate(0 1031.093369388607 719.2321954412955)"><path d="M0 0 C526.7 0, 1053.4 0, 2062.19 0 M0 0 C419.68 0, 839.36 0, 2062.19 0 M2062.19 0 C2062.19 466.43, 2062.19 932.87, 2062.19 1438.46 M2062.19 0 C2062.19 351.09, 2062.19 702.17, 2062.19 1438.46 M2062.19 1438.46 C1404.2 1438.46, 746.2 1438.46, 0 1438.46 M2062.19 1438.46 C1422.54 1438.46, 782.9 1438.46, 0 1438.46 M0 1438.46 C0 901.59, 0 364.71, 0 0 M0 1438.46 C0 1008.11, 0 577.76, 0 0" stroke="#000000" stroke-width="2" fill="none"></path></g></svg>