<svg version="1.1" xmlns="http://www.w3.org/2000/svg" viewBox="0 0 2456.9939917535976 1275.8228162599298" width="2456.9939917535976" height="1275.8228162599298">
  <!-- svg-source:excalidraw -->
  
  <defs>
    <style>
      @font-face {
        font-family: "Virgil";
        src: url("https://excalidraw.com/Virgil.woff2");
      }
      @font-face {
        font-family: "Cascadia";
        src: url("https://excalidraw.com/Cascadia.woff2");
      }
    </style>
  </defs>
  <rect x="0" y="0" width="2456.9939917535976" height="1275.8228162599298" fill="#ffffff"></rect><g transform="translate(32.11653949285392 660.7004956362695) rotate(0 99.5 25)"><text x="0" y="18" font-family="Virgil, Segoe UI Emoji" font-size="20px" fill="#000000" text-anchor="start" style="white-space: pre;" direction="ltr">A évalue le service </text><text x="0" y="43" font-family="Virgil, Segoe UI Emoji" font-size="20px" fill="#000000" text-anchor="start" style="white-space: pre;" direction="ltr">rendu par B</text></g><g stroke-linecap="round" transform="translate(10 631.6489425346673) rotate(0 130.69140895636815 45.407484611852965)"><path d="M0.74 -1.43 C69.89 -2.24, 137.69 -1.92, 262.26 -0.6 M0.45 -0.45 C91.17 -0.2, 181.8 0.45, 261.94 -0.66 M259.47 0 C262.6 26.04, 259.04 53.44, 261.99 91.49 M260.99 -0.31 C261.31 27.03, 260.71 53.72, 261.26 91.34 M262.72 90.15 C160.62 91.07, 57.84 90.35, -1.29 89.68 M260.67 90.36 C201.87 91, 141.67 91.44, -0.07 90.8 M-1.92 90.51 C0.12 65.64, -1.08 39.54, -1.15 1.6 M0.68 90.8 C-0.88 70.1, -0.46 51.61, 0.14 -0.91" stroke="#000000" stroke-width="1" fill="none"></path></g><g transform="translate(1475.566476918854 242.56936252385742) rotate(0 14 7.5)"><text x="0" y="10" font-family="Virgil, Segoe UI Emoji" font-size="11.383088057152326px" fill="#000000" text-anchor="start" style="white-space: pre;" direction="ltr">D-&gt;B</text></g><g transform="translate(1462.0020628017526 230.82599218644884) rotate(0 10.5 12.5)"><text x="0" y="18" font-family="Virgil, Segoe UI Emoji" font-size="20px" fill="#000000" text-anchor="start" style="white-space: pre;" direction="ltr">[f</text></g><g transform="translate(1482.863119277388 229.73281085456063) rotate(0 3.3167508541700954 6.6335017083403045)"><text x="0" y="9.267003416680609" font-family="Virgil, Segoe UI Emoji" font-size="10.61360273334449px" fill="#000000" text-anchor="start" style="white-space: pre;" direction="ltr">t</text></g><g transform="translate(1503.093475850969 230.2915029738598) rotate(0 6.815536167389382 15.145635927532169)"><text x="0" y="21.29127185506436" font-family="Virgil, Segoe UI Emoji" font-size="24.233017484051484px" fill="#000000" text-anchor="start" style="white-space: pre;" direction="ltr">]</text></g><g transform="translate(1171.186681179231 416.4765712301213) rotate(0 14 7.5)"><text x="0" y="10" font-family="Virgil, Segoe UI Emoji" font-size="11.383088057152326px" fill="#000000" text-anchor="start" style="white-space: pre;" direction="ltr">D-&gt;B</text></g><g transform="translate(1157.6222670621298 404.7332008927127) rotate(0 10.5 12.5)"><text x="0" y="18" font-family="Virgil, Segoe UI Emoji" font-size="20px" fill="#000000" text-anchor="start" style="white-space: pre;" direction="ltr">[f</text></g><g transform="translate(1178.4833235377655 403.6400195608245) rotate(0 3.316750854170209 6.6335017083403045)"><text x="0" y="9.267003416680609" font-family="Virgil, Segoe UI Emoji" font-size="10.61360273334449px" fill="#000000" text-anchor="start" style="white-space: pre;" direction="ltr">t</text></g><g transform="translate(1198.7136801113463 404.19871168012367) rotate(0 6.815536167389382 15.145635927532169)"><text x="0" y="21.29127185506436" font-family="Virgil, Segoe UI Emoji" font-size="24.233017484051484px" fill="#000000" text-anchor="start" style="white-space: pre;" direction="ltr">]</text></g><g transform="translate(1174.5544597667867 449.4228018635798) rotate(0 13.5 7.5)"><text x="0" y="10" font-family="Virgil, Segoe UI Emoji" font-size="11.383088057152326px" fill="#000000" text-anchor="start" style="white-space: pre;" direction="ltr">C-&gt;B</text></g><g transform="translate(1160.990045649685 437.67943152617124) rotate(0 10.5 12.5)"><text x="0" y="18" font-family="Virgil, Segoe UI Emoji" font-size="20px" fill="#000000" text-anchor="start" style="white-space: pre;" direction="ltr">[f</text></g><g transform="translate(1181.8511021253207 436.5862501942828) rotate(0 3.316750854170209 6.6335017083403045)"><text x="0" y="9.267003416680609" font-family="Virgil, Segoe UI Emoji" font-size="10.61360273334449px" fill="#000000" text-anchor="start" style="white-space: pre;" direction="ltr">t</text></g><g transform="translate(1202.081458698905 437.1449423135822) rotate(0 6.815536167389496 15.145635927532169)"><text x="0" y="21.29127185506436" font-family="Virgil, Segoe UI Emoji" font-size="24.233017484051484px" fill="#000000" text-anchor="start" style="white-space: pre;" direction="ltr">]</text></g><g transform="translate(1001.4015148127364 660.8632031611253) rotate(0 14 7.5)"><text x="0" y="10" font-family="Virgil, Segoe UI Emoji" font-size="11.383088057152326px" fill="#000000" text-anchor="start" style="white-space: pre;" direction="ltr">D-&gt;B</text></g><g transform="translate(987.837100695635 649.1198328237167) rotate(0 10.5 12.5)"><text x="0" y="18" font-family="Virgil, Segoe UI Emoji" font-size="20px" fill="#000000" text-anchor="start" style="white-space: pre;" direction="ltr">[f</text></g><g transform="translate(1008.6981571712704 648.0266514918285) rotate(0 3.316750854170209 6.6335017083403045)"><text x="0" y="9.267003416680609" font-family="Virgil, Segoe UI Emoji" font-size="10.61360273334449px" fill="#000000" text-anchor="start" style="white-space: pre;" direction="ltr">t</text></g><g transform="translate(1028.9285137448514 648.5853436111277) rotate(0 6.815536167389496 15.145635927532169)"><text x="0" y="21.29127185506436" font-family="Virgil, Segoe UI Emoji" font-size="24.233017484051484px" fill="#000000" text-anchor="start" style="white-space: pre;" direction="ltr">]</text></g><g transform="translate(1299.8972728546162 789.6378521973323) rotate(0 3.5 7.5)"><text x="0" y="10" font-family="Virgil, Segoe UI Emoji" font-size="11.383088057152326px" fill="#000000" text-anchor="start" style="white-space: pre;" direction="ltr">x</text></g><g transform="translate(1278.0106485603549 777.0802703929652) rotate(0 12 12.5)"><text x="0" y="18" font-family="Virgil, Segoe UI Emoji" font-size="20px" fill="#000000" text-anchor="start" style="white-space: pre;" direction="ltr">[C</text></g><g transform="translate(1309.9421826062855 775.7315697134173) rotate(0 6.632338587323829 14.738530194052828)"><text x="0" y="20.47706038810555" font-family="Virgil, Segoe UI Emoji" font-size="23.58164831048444px" fill="#000000" text-anchor="start" style="white-space: pre;" direction="ltr">]</text></g><g stroke-linecap="round" transform="translate(1270.7920037286215 336.0305643384962) rotate(0 103.28929309356977 50.56119242342572)"><path d="M-0.8 -1.45 C79.43 1.7, 160.66 1.21, 204.81 -0.31 M0.46 0.12 C66.29 0.66, 131.79 0.64, 207.35 0.29 M207.36 -0.86 C208.16 22.85, 205.21 46.24, 207.68 101.11 M205.64 -0.91 C205.96 33.65, 206.16 65.71, 206.21 101.73 M206.68 101.08 C162.68 99.91, 115.39 99.69, 0.24 102.49 M206.14 100.92 C126.67 99.68, 45.94 99.22, -0.36 100.93 M-0.08 102.97 C2.37 59.74, 0.4 22.34, 1.78 0.88 M0.33 101.14 C-0.51 80.02, -0.5 58.3, 0.02 -0.62" stroke="#000000" stroke-width="1" fill="none"></path></g><g stroke-linecap="round"><g transform="translate(1269.0950806922413 415.5217418686668) rotate(0 -59.6186967992694 60.42114406455539)"><path d="M0.61 -1.2 C-19.27 18.98, -99.08 101.62, -119.2 122.04 M-0.52 0.79 C-20.52 21.13, -99.75 99.91, -119.85 120.21" stroke="#000000" stroke-width="1" fill="none"></path></g><g transform="translate(1269.0950806922413 415.5217418686668) rotate(0 -59.6186967992694 60.42114406455539)"><path d="M-109.19 93.96 C-109.92 100.83, -115.01 111.62, -121.18 121.98 M-106.72 93.2 C-109.64 99, -114.2 106.41, -119.88 120.7" stroke="#000000" stroke-width="1" fill="none"></path></g><g transform="translate(1269.0950806922413 415.5217418686668) rotate(0 -59.6186967992694 60.42114406455539)"><path d="M-94.67 108.47 C-100 110.94, -109.55 117.26, -121.18 121.98 M-92.2 107.7 C-98.57 110, -106.66 113.89, -119.88 120.7" stroke="#000000" stroke-width="1" fill="none"></path></g></g><g transform="translate(1329.7413480606454 352.6861224033572) rotate(0 38 12.5)"><text x="0" y="18" font-family="Virgil, Segoe UI Emoji" font-size="20px" fill="#000000" text-anchor="start" style="white-space: pre;" direction="ltr">Filtrage</text></g><g stroke-linecap="round"><g transform="translate(272.3828179127363 717.3003595151225) rotate(0 176.83094143822552 58.08997071665215)"><path d="M-0.49 -0.05 C58.53 19.33, 295.37 96.6, 354.15 116.37 M1.45 -1.12 C60.4 18.36, 294.91 97.64, 353.78 117.3" stroke="#000000" stroke-width="1" fill="none"></path></g><g transform="translate(272.3828179127363 717.3003595151225) rotate(0 176.83094143822552 58.08997071665215)"><path d="M323.71 119.86 C330.97 116.49, 343.81 115.96, 354.27 115.92 M324.76 117.27 C332.95 116.81, 341.82 117.33, 354.62 116.59" stroke="#000000" stroke-width="1" fill="none"></path></g><g transform="translate(272.3828179127363 717.3003595151225) rotate(0 176.83094143822552 58.08997071665215)"><path d="M330.25 100.41 C335.53 102.93, 346.39 108.32, 354.27 115.92 M331.3 97.82 C337.34 103.4, 344.18 109.97, 354.62 116.59" stroke="#000000" stroke-width="1" fill="none"></path></g></g><g stroke-linecap="round"><g transform="translate(988.8204365499198 617.6644099527056) rotate(0 -97.28598615053465 90.00245935117215)"><path d="M1.07 0.76 C-31.29 30.83, -162.13 150.28, -195.02 179.89 M0.17 0.11 C-32.22 29.85, -162.72 148.1, -195.64 177.94" stroke="#000000" stroke-width="1" fill="none"></path></g><g transform="translate(988.8204365499198 617.6644099527056) rotate(0 -97.28598615053465 90.00245935117215)"><path d="M-180.38 152.43 C-184.46 156.57, -190.1 162.77, -194.39 177.72 M-181.71 152.14 C-186.24 160.32, -190.9 169.9, -194.83 177.3" stroke="#000000" stroke-width="1" fill="none"></path></g><g transform="translate(988.8204365499198 617.6644099527056) rotate(0 -97.28598615053465 90.00245935117215)"><path d="M-166.6 167.64 C-173.78 168.39, -182.6 171.1, -194.39 177.72 M-167.93 167.35 C-177.52 169.97, -187.18 174.02, -194.83 177.3" stroke="#000000" stroke-width="1" fill="none"></path></g></g><g transform="translate(636.0741122678128 1007.1423760721005) rotate(359.6158547181367 28 12.5)"><text x="0" y="18" font-family="Virgil, Segoe UI Emoji" font-size="20px" fill="#000000" text-anchor="start" style="white-space: pre;" direction="ltr">decay</text></g><g transform="translate(673.0490876962672 811.4113467580979) rotate(0 77.5 25)"><text x="0" y="18" font-family="Virgil, Segoe UI Emoji" font-size="20px" fill="#000000" text-anchor="start" style="white-space: pre;" direction="ltr">Aggregation des</text><text x="0" y="43" font-family="Virgil, Segoe UI Emoji" font-size="20px" fill="#000000" text-anchor="start" style="white-space: pre;" direction="ltr">feedbacks</text></g><g transform="translate(682.037245595465 902.8457784289473) rotate(0 13.5 7.5)"><text x="0" y="10" font-family="Virgil, Segoe UI Emoji" font-size="11.383088057152326px" fill="#000000" text-anchor="start" style="white-space: pre;" direction="ltr">A-&gt;B</text></g><g transform="translate(668.4728314783636 891.1024080915387) rotate(0 10.5 12.5)"><text x="0" y="18" font-family="Virgil, Segoe UI Emoji" font-size="20px" fill="#000000" text-anchor="start" style="white-space: pre;" direction="ltr">[f</text></g><g transform="translate(678.9913661887251 881.5055509091486) rotate(0 3.3167508541700954 6.6335017083403045)"><text x="0" y="9.267003416680609" font-family="Virgil, Segoe UI Emoji" font-size="10.61360273334449px" fill="#000000" text-anchor="start" style="white-space: pre;" direction="ltr">t</text></g><g transform="translate(709.5642445275801 890.5679188789496) rotate(0 6.815536167389496 15.145635927532226)"><text x="0" y="21.29127185506436" font-family="Virgil, Segoe UI Emoji" font-size="24.233017484051484px" fill="#000000" text-anchor="start" style="white-space: pre;" direction="ltr">]</text></g><g transform="translate(801.5136533791365 900.750101355509) rotate(0 4.5 7.5)"><text x="0" y="10" font-family="Virgil, Segoe UI Emoji" font-size="11.383088057152326px" fill="#000000" text-anchor="start" style="white-space: pre;" direction="ltr">B</text></g><g transform="translate(787.949239262035 889.0067310181004) rotate(0 6 12.5)"><text x="0" y="18" font-family="Virgil, Segoe UI Emoji" font-size="20px" fill="#000000" text-anchor="start" style="white-space: pre;" direction="ltr">F</text></g><g stroke-linecap="round"><g transform="translate(730.1723745966433 899.1392905226982) rotate(0 25.655218110965734 0.3240703697971412)"><path d="M0.26 0.83 C8.93 0.87, 43.58 -0.12, 52.37 -0.36 M-1.06 0.22 C7.41 0.48, 42.44 0.97, 51.37 1" stroke="#000000" stroke-width="1" fill="none"></path></g><g transform="translate(730.1723745966433 899.1392905226982) rotate(0 25.655218110965734 0.3240703697971412)"><path d="M28.02 9.57 C34.26 7.72, 42.01 2.2, 52.34 0.56 M26.19 10.3 C35.42 7.47, 45.76 2.77, 51.7 0.29" stroke="#000000" stroke-width="1" fill="none"></path></g><g transform="translate(730.1723745966433 899.1392905226982) rotate(0 25.655218110965734 0.3240703697971412)"><path d="M28.19 -8.37 C34.3 -4.31, 41.98 -3.92, 52.34 0.56 M26.37 -7.64 C35.53 -3.72, 45.81 -1.67, 51.7 0.29" stroke="#000000" stroke-width="1" fill="none"></path></g></g><g stroke-linecap="round"><g transform="translate(677.4605081000539 567.4988666780997) rotate(0 368.55913746604983 -203.5223514791308)"><path d="M-1.12 -0.33 C22.02 -53.27, 16.76 -250.57, 139.98 -318.3 C263.21 -386.03, 638.61 -392.29, 738.24 -406.72 M0.49 -1.54 C23.88 -54.22, 19.29 -249.35, 142.08 -316.76 C264.86 -384.18, 637.97 -390.97, 737.21 -406.03" stroke="#000000" stroke-width="1" fill="none"></path></g><g transform="translate(677.4605081000539 567.4988666780997) rotate(0 368.55913746604983 -203.5223514791308)"><path d="M709.48 -395.28 C720.83 -398.93, 729.58 -404.74, 738.31 -405.55 M710.85 -393.51 C716.8 -397.52, 724.11 -399.5, 737.31 -406.12" stroke="#000000" stroke-width="1" fill="none"></path></g><g transform="translate(677.4605081000539 567.4988666780997) rotate(0 368.55913746604983 -203.5223514791308)"><path d="M707.68 -415.72 C719.62 -411.28, 729.09 -409.01, 738.31 -405.55 M709.04 -413.96 C715.57 -412.43, 723.36 -408.89, 737.31 -406.12" stroke="#000000" stroke-width="1" fill="none"></path></g></g><g stroke-linecap="round"><g transform="translate(648.1525252118245 570.1706141238432) rotate(0 236.11651829152606 -222.15132229941858)"><path d="M-0.2 0.68 C18.74 -56.52, 33.45 -268.5, 112.48 -342.46 C191.51 -416.42, 413.93 -426.35, 473.99 -443.08 M-1.76 0 C17.11 -57.1, 32.2 -266.93, 111.47 -341.1 C190.74 -415.26, 413.56 -427.69, 473.85 -444.99" stroke="#000000" stroke-width="1" fill="none"></path></g><g transform="translate(648.1525252118245 570.1706141238432) rotate(0 236.11651829152606 -222.15132229941858)"><path d="M449.04 -430.13 C452.56 -431, 459.83 -435.93, 475.59 -445.82 M447.23 -430.01 C454.49 -434.21, 462.06 -438.64, 472.97 -444.29" stroke="#000000" stroke-width="1" fill="none"></path></g><g transform="translate(648.1525252118245 570.1706141238432) rotate(0 236.11651829152606 -222.15132229941858)"><path d="M445.43 -450.33 C449.82 -447.06, 457.83 -447.84, 475.59 -445.82 M443.62 -450.21 C451.99 -449.01, 460.52 -448.01, 472.97 -444.29" stroke="#000000" stroke-width="1" fill="none"></path></g></g><g transform="translate(557.5285068839501 589.8278635024791) rotate(0 66.5 37.5)"><text x="66.5" y="18" font-family="Virgil, Segoe UI Emoji" font-size="20px" fill="#000000" text-anchor="middle" style="white-space: pre;" direction="ltr">Evaluation </text><text x="66.5" y="43" font-family="Virgil, Segoe UI Emoji" font-size="20px" fill="#000000" text-anchor="middle" style="white-space: pre;" direction="ltr">de la qualité</text><text x="66.5" y="68" font-family="Virgil, Segoe UI Emoji" font-size="20px" fill="#000000" text-anchor="middle" style="white-space: pre;" direction="ltr">de l'aggrégat</text></g><g transform="translate(1212.844883629294 558.7482533155013) rotate(0 104.5 25)"><text x="0" y="18" font-family="Virgil, Segoe UI Emoji" font-size="20px" fill="#000000" text-anchor="start" style="white-space: pre;" direction="ltr">Détection d'acteurs </text><text x="0" y="43" font-family="Virgil, Segoe UI Emoji" font-size="20px" fill="#000000" text-anchor="start" style="white-space: pre;" direction="ltr">malveillants</text></g><g transform="translate(100.98071839737645 241.4074419810646) rotate(0 102.5 25)"><text x="0" y="18" font-family="Virgil, Segoe UI Emoji" font-size="20px" fill="#000000" text-anchor="start" style="white-space: pre;" direction="ltr">Liste de confiance : </text><text x="0" y="43" font-family="Virgil, Segoe UI Emoji" font-size="20px" fill="#000000" text-anchor="start" style="white-space: pre;" direction="ltr">- </text></g><g stroke-linecap="round" transform="translate(501.58693287620326 282.85813965728835) rotate(0 689.793986613715 421.816869425731)"><path d="M0.33 -0.45 C347.52 2.91, 694.93 3.03, 1379.33 0.35 M-0.08 -0.05 C495.26 -0.83, 990.44 -0.69, 1379.68 0 M1379.2 0.77 C1379.98 330.91, 1380.68 663.1, 1379.26 843.41 M1379.3 -0.03 C1380.84 334.65, 1380.46 669.38, 1379.41 843.93 M1380.11 844.34 C963.97 840.05, 550.32 840.36, 0.29 843.91 M1379.47 843.68 C884.65 844.96, 389.56 844.41, -0.23 843.79 M-0.14 842.91 C-1.58 553.43, -1.28 262.65, -0.21 0 M0.34 844.02 C-2.54 665.76, -2.16 488, 0.21 -0.32" stroke="#000000" stroke-width="1" fill="none"></path></g><g transform="translate(1052.1473807350126 1074.964952479269) rotate(0 228.9999999999999 17.5)"><text x="0" y="25" font-family="Virgil, Segoe UI Emoji" font-size="28px" fill="#000000" text-anchor="start" style="white-space: pre;" direction="ltr">Système de réputation local à A</text></g><g transform="translate(399.05167052380284 727.0753765435892) rotate(0 13.5 7.5)"><text x="0" y="10" font-family="Virgil, Segoe UI Emoji" font-size="11.383088057152326px" fill="#000000" text-anchor="start" style="white-space: pre;" direction="ltr">A-&gt;B</text></g><g transform="translate(385.48725640670136 715.3320062061811) rotate(0 5.5 12.5)"><text x="0" y="18" font-family="Virgil, Segoe UI Emoji" font-size="20px" fill="#000000" text-anchor="start" style="white-space: pre;" direction="ltr">f</text></g><g transform="translate(396.0057911170629 705.7351490237912) rotate(0 3.316750854170209 6.6335017083403045)"><text x="0" y="9.267003416680609" font-family="Virgil, Segoe UI Emoji" font-size="10.61360273334449px" fill="#000000" text-anchor="start" style="white-space: pre;" direction="ltr">t</text></g><g stroke-linecap="round"><g transform="translate(30.328983771334833 546.4700498821618) rotate(0 29.967816814752723 36.22831843073982)"><path d="M0.69 -1.17 C1.59 5.01, -5.73 25.05, 4.42 37.28 C14.57 49.51, 52.09 66.6, 61.6 72.23 M-0.4 0.83 C0.52 7.11, -6.17 26.19, 4.07 38.32 C14.32 50.45, 51.42 68.07, 61.06 73.63" stroke="#000000" stroke-width="1" fill="none"></path></g><g transform="translate(30.328983771334833 546.4700498821618) rotate(0 29.967816814752723 36.22831843073982)"><path d="M29.4 71.34 C36.34 70.9, 44.73 71.65, 59.37 74.92 M32.31 70.04 C42.73 71.04, 54.09 72.5, 61.78 74.46" stroke="#000000" stroke-width="1" fill="none"></path></g><g transform="translate(30.328983771334833 546.4700498821618) rotate(0 29.967816814752723 36.22831843073982)"><path d="M39.04 53.23 C43.89 56.85, 50.14 61.61, 59.37 74.92 M41.95 51.93 C48.91 59.7, 56.63 67.99, 61.78 74.46" stroke="#000000" stroke-width="1" fill="none"></path></g></g><g stroke-linecap="round"><g transform="translate(145.37785097422613 556.7952236137569) rotate(0 -7.1587708582406435 35.25674609505501)"><path d="M-0.78 0.78 C-3.2 12.19, -12.44 57.72, -14.72 69.3 M1.02 0.14 C-1.49 11.61, -12.7 58.46, -15.34 70.37" stroke="#000000" stroke-width="1" fill="none"></path></g><g transform="translate(145.37785097422613 556.7952236137569) rotate(0 -7.1587708582406435 35.25674609505501)"><path d="M-17.69 41.65 C-19.21 50.5, -16.56 57, -16.06 72.23 M-18.74 41.52 C-18.36 51.89, -15.97 62.29, -16.16 70.58" stroke="#000000" stroke-width="1" fill="none"></path></g><g transform="translate(145.37785097422613 556.7952236137569) rotate(0 -7.1587708582406435 35.25674609505501)"><path d="M2.31 46.28 C-4.91 53.68, -7.93 58.88, -16.06 72.23 M1.26 46.15 C-5.46 54.96, -10.16 63.72, -16.16 70.58" stroke="#000000" stroke-width="1" fill="none"></path></g></g><g transform="translate(120.21559915653665 510.09754919891725) rotate(0 46.5 20)"><text x="0" y="14" font-family="Virgil, Segoe UI Emoji" font-size="16px" fill="#000000" text-anchor="start" style="white-space: pre;" direction="ltr">Vecteur de </text><text x="0" y="34" font-family="Virgil, Segoe UI Emoji" font-size="16px" fill="#000000" text-anchor="start" style="white-space: pre;" direction="ltr">critères</text></g><g transform="translate(1157.3267823480094 250.95826596299287) rotate(0 13.5 7.5)"><text x="0" y="10" font-family="Virgil, Segoe UI Emoji" font-size="11.383088057152326px" fill="#000000" text-anchor="start" style="white-space: pre;" direction="ltr">C-&gt;B</text></g><g transform="translate(1143.762368230908 239.2148956255843) rotate(0 10.5 12.5)"><text x="0" y="18" font-family="Virgil, Segoe UI Emoji" font-size="20px" fill="#000000" text-anchor="start" style="white-space: pre;" direction="ltr">[f</text></g><g transform="translate(1164.6234247065433 238.12171429369585) rotate(0 3.3167508541700954 6.6335017083403045)"><text x="0" y="9.267003416680609" font-family="Virgil, Segoe UI Emoji" font-size="10.61360273334449px" fill="#000000" text-anchor="start" style="white-space: pre;" direction="ltr">t</text></g><g transform="translate(1184.8537812801244 238.68040641299524) rotate(0 6.815536167389496 15.145635927532169)"><text x="0" y="21.29127185506436" font-family="Virgil, Segoe UI Emoji" font-size="24.233017484051484px" fill="#000000" text-anchor="start" style="white-space: pre;" direction="ltr">]</text></g><g transform="translate(1227.1390223838368 735.0426947317284) rotate(0 73.64353974724531 19.508222449601362)"><text x="73.6435397472454" y="13.50822244960142" font-family="Virgil, Segoe UI Emoji" font-size="15.60657795968116px" fill="#000000" text-anchor="middle" style="white-space: pre;" direction="ltr">Confiance émeteur </text><text x="73.6435397472454" y="33.01644489920284" font-family="Virgil, Segoe UI Emoji" font-size="15.60657795968116px" fill="#000000" text-anchor="middle" style="white-space: pre;" direction="ltr">du feedbacks</text></g><g stroke-linecap="round"><g transform="translate(1387.138934206477 774.043358920191) rotate(0 71.44241437109054 -160.6430076448204)"><path d="M1.13 0.46 C23.43 -1.3, 113.41 37.98, 133.52 -11.05 C153.62 -60.09, 127.49 -239.69, 121.75 -293.75 C116.01 -347.81, 103.16 -328.6, 99.07 -335.42 M0.26 -0.35 C22.95 -1.9, 115.52 38.91, 135.7 -9.76 C155.88 -58.43, 127.31 -238.29, 121.32 -292.36 C115.33 -346.44, 103.51 -326.71, 99.76 -334.21" stroke="#000000" stroke-width="1" fill="none"></path></g><g transform="translate(1387.138934206477 774.043358920191) rotate(0 71.44241437109054 -160.6430076448204)"><path d="M124.31 -334.92 C116.19 -332.22, 110.61 -332.13, 100.09 -335.95 M123.13 -332.76 C113.78 -332.77, 105.52 -334.04, 100.42 -333.46" stroke="#000000" stroke-width="1" fill="none"></path></g><g transform="translate(1387.138934206477 774.043358920191) rotate(0 71.44241437109054 -160.6430076448204)"><path d="M118.13 -319.86 C111.78 -321.38, 107.91 -325.45, 100.09 -335.95 M116.95 -317.69 C109.93 -323.48, 104.03 -330.51, 100.42 -333.46" stroke="#000000" stroke-width="1" fill="none"></path></g></g><g stroke-linecap="round" transform="translate(1199.597148304378 538.3743568050285) rotate(0 116.18849463035349 42.43458410578353)"><path d="M0.67 -0.46 C75.99 0.39, 155.31 -0.46, 232.86 0.27 M0.75 -0.27 C69.57 0.56, 137.09 0.5, 232.39 -0.72 M233.72 -0.16 C232.73 32.92, 232.01 65.07, 233.19 85.24 M232.15 -0.77 C233.75 18.18, 232.92 35.6, 233.2 85.83 M233.21 83.72 C177.12 87.8, 125.26 88.29, 0.06 85.55 M231.77 84.63 C150.68 82.63, 68.02 83.58, -0.74 84.23 M-0.18 85.96 C0.89 61.44, -0.29 33.52, 0.93 -1.86 M0.47 84.94 C1.75 64.79, 1.58 42.42, 0.79 0" stroke="#000000" stroke-width="1" fill="none"></path></g><g stroke-linecap="round"><g transform="translate(1321.5852005247773 445.1339950578258) rotate(0 -1.2228870492397164 46.52362582687681)"><path d="M0.91 0.98 C0.34 16.22, -2.8 77.56, -3.36 92.6 M-0.07 0.45 C-0.28 15.87, -0.62 75.66, -1.14 90.97" stroke="#000000" stroke-width="1" fill="none"></path></g><g transform="translate(1321.5852005247773 445.1339950578258) rotate(0 -1.2228870492397164 46.52362582687681)"><path d="M-9.26 61.03 C-6.04 71.24, -5.32 80.91, -0.4 89.09 M-11.41 62.86 C-9.25 69.27, -5.92 75.42, -0.83 91.5" stroke="#000000" stroke-width="1" fill="none"></path></g><g transform="translate(1321.5852005247773 445.1339950578258) rotate(0 -1.2228870492397164 46.52362582687681)"><path d="M11.26 61.4 C8.18 71.65, 2.61 81.21, -0.4 89.09 M9.11 63.22 C6.38 69.74, 4.82 75.8, -0.83 91.5" stroke="#000000" stroke-width="1" fill="none"></path></g></g><g stroke-linecap="round"><g transform="translate(1332.4733466261844 625.4270068107733) rotate(0 -1.123731449112256 49.82823130099939)"><path d="M-1.01 0.89 C-1.15 17.51, -1.66 83.07, -1.68 99.34 M0.66 0.31 C0.4 16.64, -2.49 81.11, -2.91 97.7" stroke="#000000" stroke-width="1" fill="none"></path></g><g transform="translate(1332.4733466261844 625.4270068107733) rotate(0 -1.123731449112256 49.82823130099939)"><path d="M-10.67 68.27 C-8.61 75.81, -7.88 83.45, -2.82 99.12 M-11.18 69.32 C-8.77 78.07, -6.26 86.88, -3.15 98.43" stroke="#000000" stroke-width="1" fill="none"></path></g><g transform="translate(1332.4733466261844 625.4270068107733) rotate(0 -1.123731449112256 49.82823130099939)"><path d="M9.84 69.01 C7.21 76.21, 3.25 83.68, -2.82 99.12 M9.33 70.06 C5.4 78.71, 1.58 87.3, -3.15 98.43" stroke="#000000" stroke-width="1" fill="none"></path></g></g><g stroke-linecap="round" transform="translate(1220.4097467697927 724.8570546635316) rotate(0 79.7965772022319 42.519344056663726)"><path d="M0.33 0.03 C62.97 2.08, 123.32 2.17, 160.31 -1.41 M0.12 -0.34 C54.66 0.97, 108.82 2.45, 159.19 0.49 M158.42 -1.16 C160.72 30.83, 159.42 57.95, 157.63 86.36 M160.06 0.95 C160.07 16.44, 159.7 33.73, 159.61 84.95 M161.59 86.66 C101.49 83.51, 45.12 83.43, -0.29 83.31 M159.17 84.32 C122.81 84, 85.02 83.29, -0.88 84.31 M1.39 83.54 C-0.89 66.25, -0.57 45.75, 0.83 0.99 M0.08 86.03 C-1.07 63.54, -0.67 44.56, -0.79 0.67" stroke="#000000" stroke-width="1" fill="none"></path></g><g transform="translate(1355.4860994426165 641.2742675269061) rotate(0 66 30)"><text x="66" y="14" font-family="Virgil, Segoe UI Emoji" font-size="16px" fill="#000000" text-anchor="middle" style="white-space: pre;" direction="ltr">Analyse </text><text x="66" y="34" font-family="Virgil, Segoe UI Emoji" font-size="16px" fill="#000000" text-anchor="middle" style="white-space: pre;" direction="ltr">statistiques</text><text x="66" y="54" font-family="Virgil, Segoe UI Emoji" font-size="16px" fill="#000000" text-anchor="middle" style="white-space: pre;" direction="ltr">sur le feedbacks</text></g><g stroke-linecap="round" transform="translate(1420.8598964738514 96.05406127861073) rotate(0 63.169921875 34.576171875)"><path d="M0.64 1.42 L127.01 -0.37 L125.52 67.56 L1.2 70.6" stroke="none" stroke-width="0" fill="white"></path><path d="M-0.25 -1.45 C39.31 -1.64, 74.16 -2.04, 127.96 0.68 M-0.13 -0.01 C31.76 0.12, 62.6 0.41, 126.54 0.1 M125 1.35 C124.91 15.3, 126.58 35.1, 127.18 69.82 M125.66 -0.05 C127.78 16.25, 127.06 32.11, 127.29 69.59 M126.24 67.63 C84.2 70.69, 44.38 69.4, -1.64 70.52 M125.4 68.5 C83.55 69.52, 41.16 70.15, -0.84 69.63 M1.32 68.28 C2.15 43.35, -0.48 16.71, 0.7 0.11 M0.48 68.33 C-0.06 53.55, 0.43 37.51, 0.46 -0.66" stroke="#000000" stroke-width="1" fill="none"></path></g><g transform="translate(801.8896884485544 10) rotate(0 164.5 75)"><text x="0" y="18" font-family="Virgil, Segoe UI Emoji" font-size="20px" fill="#000000" text-anchor="start" style="white-space: pre;" direction="ltr">demande à C de feedback global </text><text x="0" y="43" font-family="Virgil, Segoe UI Emoji" font-size="20px" fill="#000000" text-anchor="start" style="white-space: pre;" direction="ltr">sur  B sur un </text><text x="0" y="68" font-family="Virgil, Segoe UI Emoji" font-size="20px" fill="#000000" text-anchor="start" style="white-space: pre;" direction="ltr">intervalle de temps </text><text x="0" y="93" font-family="Virgil, Segoe UI Emoji" font-size="20px" fill="#000000" text-anchor="start" style="white-space: pre;" direction="ltr">donné et pour </text><text x="0" y="118" font-family="Virgil, Segoe UI Emoji" font-size="20px" fill="#000000" text-anchor="start" style="white-space: pre;" direction="ltr">un vecteur de critère</text><text x="0" y="143" font-family="Virgil, Segoe UI Emoji" font-size="20px" fill="#000000" text-anchor="start" style="white-space: pre;" direction="ltr">donné</text></g><g stroke-linecap="round"><g transform="translate(1218.4578151625458 170.8491991810148) rotate(0 31.15847666946047 80.89888803348995)"><path d="M0.81 -0.55 C10.84 26.68, 50.19 135.14, 60.35 162.35 M-0.23 1.77 C10.16 28.74, 52.3 134.06, 62.55 160.58" stroke="#000000" stroke-width="1" fill="none"></path></g><g transform="translate(1218.4578151625458 170.8491991810148) rotate(0 31.15847666946047 80.89888803348995)"><path d="M41.74 136.45 C49.76 145.72, 56.53 150.72, 63.05 162.28 M42.56 138.2 C48.13 145.66, 53.89 151.99, 63.15 160.82" stroke="#000000" stroke-width="1" fill="none"></path></g><g transform="translate(1218.4578151625458 170.8491991810148) rotate(0 31.15847666946047 80.89888803348995)"><path d="M60.84 128.93 C62.85 140.66, 63.68 148.01, 63.05 162.28 M61.66 130.68 C61.3 140.5, 61.21 149.15, 63.15 160.82" stroke="#000000" stroke-width="1" fill="none"></path></g></g><g stroke-linecap="round"><g transform="translate(1460.2685984953225 174.98992900225824) rotate(0 -24.688738275339347 79.99334410982473)"><path d="M1.12 -0.98 C-7.48 25.5, -42.1 132.71, -50.5 159.33 M0.25 1.12 C-8.06 27.78, -39.8 134.5, -48.13 160.96" stroke="#000000" stroke-width="1" fill="none"></path></g><g transform="translate(1460.2685984953225 174.98992900225824) rotate(0 -24.688738275339347 79.99334410982473)"><path d="M-51.35 129.91 C-48.68 143.76, -48.97 155.38, -48.93 161.33 M-50.34 130.53 C-48.55 138.53, -47.99 145.04, -48.67 161.37" stroke="#000000" stroke-width="1" fill="none"></path></g><g transform="translate(1460.2685984953225 174.98992900225824) rotate(0 -24.688738275339347 79.99334410982473)"><path d="M-31.72 135.9 C-36.81 147.57, -44.83 156.83, -48.93 161.33 M-30.71 136.52 C-33.39 143.34, -37.24 148.49, -48.67 161.37" stroke="#000000" stroke-width="1" fill="none"></path></g></g><g stroke-linecap="round" transform="translate(1123.8032558488514 90.74742065361073) rotate(0 63.169921875 34.576171875)"><path d="M0.93 -1.31 L126.98 1.42 L127.01 68.78 L-0.82 67.56" stroke="none" stroke-width="0" fill="white"></path><path d="M-1.47 0.19 C41.28 -1.43, 84.65 -1.5, 125.05 -1.92 M-0.3 -0.85 C48.01 0.61, 96.32 -0.34, 125.5 -0.66 M126.33 1.33 C125.07 23.46, 124.98 42.84, 126.59 70.86 M127.07 -0.49 C125.89 23.6, 127.5 47.86, 126.56 69.87 M127.45 69.41 C76.35 68.02, 26.16 70.91, 1.49 69.24 M126.42 69.99 C97.86 68.99, 71.36 68.95, 0.59 69.09 M-1.19 68.64 C0.99 53.35, 1.41 40.58, -0.89 1.78 M-0.89 68.89 C0.44 45.18, -0.72 22.69, -0.18 -0.75" stroke="#000000" stroke-width="1" fill="none"></path></g><g transform="translate(1128.8032558488514 112.82359252861079) rotate(0 58 12.5)"><text x="58" y="18" font-family="Virgil, Segoe UI Emoji" font-size="20px" fill="#000000" text-anchor="middle" style="white-space: pre;" direction="ltr">Acteur C</text></g><g transform="translate(1425.8598964738514 118.13023315361079) rotate(0 58 12.5)"><text x="58" y="18" font-family="Virgil, Segoe UI Emoji" font-size="20px" fill="#000000" text-anchor="middle" style="white-space: pre;" direction="ltr">Acteur D</text></g><g transform="translate(1595.5607425720489 110.13736154719709) rotate(0 104.5 50)"><text x="104.5" y="18" font-family="Virgil, Segoe UI Emoji" font-size="20px" fill="#000000" text-anchor="middle" style="white-space: pre;" direction="ltr">représente les deux</text><text x="104.5" y="43" font-family="Virgil, Segoe UI Emoji" font-size="20px" fill="#000000" text-anchor="middle" style="white-space: pre;" direction="ltr"> modes d'interactions</text><text x="104.5" y="68" font-family="Virgil, Segoe UI Emoji" font-size="20px" fill="#000000" text-anchor="middle" style="white-space: pre;" direction="ltr">je demande qqchose</text><text x="104.5" y="93" font-family="Virgil, Segoe UI Emoji" font-size="20px" fill="#000000" text-anchor="middle" style="white-space: pre;" direction="ltr">j'envoie qqchose</text></g><g transform="translate(1004.3064169194251 566.713723846548) rotate(0 65 12.5)"><text x="65" y="18" font-family="Virgil, Segoe UI Emoji" font-size="20px" fill="#000000" text-anchor="middle" style="white-space: pre;" direction="ltr">Normalization</text></g><g stroke-linecap="round" transform="translate(986.2255801287395 544.8384536137539) rotate(0 83.11174553471824 32.7046218891129)"><path d="M-1.28 0.91 C56.22 0.19, 113.39 0.7, 167.48 -0.54 M0.39 -0.92 C38.09 0.83, 78.5 0.13, 167.07 0.01 M165.94 0.28 C166.79 17.45, 167.19 36.41, 167.51 66.33 M165.99 -0.29 C166.17 13.16, 166.33 28.03, 166.48 66.03 M165.4 66.62 C118.12 64.99, 72.04 66.18, 1.21 65.84 M166.82 65.43 C117.2 66.36, 69.5 65.67, 0.15 66.1 M0.37 63.5 C2.18 39.56, 2.09 15.57, -0.16 1.83 M-0.39 65.62 C-1.03 46.57, 0.32 28.38, 0.97 0.18" stroke="#000000" stroke-width="1" fill="none"></path></g><g transform="translate(999.0570550527091 636.5243084854922) rotate(0 13.5 7.5)"><text x="0" y="10" font-family="Virgil, Segoe UI Emoji" font-size="11.383088057152326px" fill="#000000" text-anchor="start" style="white-space: pre;" direction="ltr">C-&gt;B</text></g><g transform="translate(985.4926409356076 624.7809381480836) rotate(0 10.5 12.5)"><text x="0" y="18" font-family="Virgil, Segoe UI Emoji" font-size="20px" fill="#000000" text-anchor="start" style="white-space: pre;" direction="ltr">[f</text></g><g transform="translate(1006.353697411243 623.6877568161951) rotate(0 3.316750854170209 6.6335017083403045)"><text x="0" y="9.267003416680609" font-family="Virgil, Segoe UI Emoji" font-size="10.61360273334449px" fill="#000000" text-anchor="start" style="white-space: pre;" direction="ltr">t</text></g><g transform="translate(1026.584053984824 624.2464489354945) rotate(0 6.815536167389496 15.145635927532169)"><text x="0" y="21.29127185506436" font-family="Virgil, Segoe UI Emoji" font-size="24.233017484051484px" fill="#000000" text-anchor="start" style="white-space: pre;" direction="ltr">]</text></g><g stroke-linecap="round"><g transform="translate(705.5770505571959 939.2350028283473) rotate(0 -48.678463411647726 34.30700683670625)"><path d="M-0.59 -0.05 C-0.03 10.94, 16.86 55.23, 2.83 66.15 C-11.21 77.06, -67.1 75.4, -84.78 65.44 C-102.45 55.48, -110.38 18.42, -103.2 6.39 C-96.03 -5.63, -51.92 -4.62, -41.73 -6.72 M1.31 -1.12 C1.73 10.07, 15.7 56.42, 1.76 67.75 C-12.18 79.08, -64.89 76.93, -82.32 66.86 C-99.74 56.78, -109.86 19.58, -102.78 7.32 C-95.7 -4.94, -50.12 -4.27, -39.84 -6.7" stroke="#000000" stroke-width="1" fill="none"></path></g><g transform="translate(705.5770505571959 939.2350028283473) rotate(0 -48.678463411647726 34.30700683670625)"><path d="M-66.88 6.12 C-59.68 1.85, -52.65 0.42, -40.4 -7.66 M-66.65 7.3 C-59.78 3.27, -53 0.15, -40.74 -6.94" stroke="#000000" stroke-width="1" fill="none"></path></g><g transform="translate(705.5770505571959 939.2350028283473) rotate(0 -48.678463411647726 34.30700683670625)"><path d="M-69.05 -14.29 C-61.27 -13.31, -53.68 -9.5, -40.4 -7.66 M-68.81 -13.11 C-61.58 -12.21, -54.29 -10.42, -40.74 -6.94" stroke="#000000" stroke-width="1" fill="none"></path></g></g><g stroke-linecap="round" transform="translate(614.4536190447502 993.6529914697309) rotate(359.6158547181367 48 31.120001939865915)"><path d="M0.68 1.57 C28.7 0.32, 55.88 -0.6, 97.89 1.8 M-0.51 -0.54 C23.28 -0.29, 45.04 -0.95, 96.62 -0.95 M94.35 0.06 C97.45 17.79, 97.91 37.95, 95.9 61.38 M96.87 -0.17 C96.44 16.84, 96.6 33.83, 95.95 62.98 M94.02 63.99 C66.22 60.87, 35.66 61.23, 1.66 60.24 M95.55 62.92 C71.8 61.61, 45.53 62.63, -0.34 63.16 M-0.15 61.95 C1.53 50.43, -1.65 36.26, -0.14 1.7 M-0.68 62.26 C1 45.08, 0.27 28.26, 0.82 -0.3" stroke="#000000" stroke-width="1" fill="none"></path></g><g stroke-linecap="round" transform="translate(633.5484469214034 795.7742836771423) rotate(0 104.42053719667615 69.67081853405682)"><path d="M0.69 1.19 C74.14 -0.65, 150.28 -0.19, 207.63 -0.63 M0.87 0.69 C52.34 1.87, 104.85 0.6, 208.81 -0.77 M207.03 1.52 C211.4 45.37, 209.77 89.48, 208.37 138.17 M208.52 -0.58 C209.38 47.57, 208.64 94.51, 208.62 139.22 M208.42 137.8 C139.39 139.58, 66.91 138.6, -1.31 138.67 M209.36 138.57 C156.66 139.45, 102.17 139.68, -0.39 139.6 M-0.97 138.82 C0.32 90.46, -2.73 42.43, 1.77 1.34 M-0.89 139.67 C-0.24 85.12, -1.26 29.36, -0.67 0.58" stroke="#000000" stroke-width="1" fill="none"></path></g><g stroke-linecap="round"><g transform="translate(1215.1578376349332 783.2781297262555) rotate(0 -180.90304068666387 39.4806136338849)"><path d="M0.33 0.55 C-59.95 13.72, -301.77 66.15, -362.14 79.17 M-0.95 -0.21 C-60.81 12.62, -299.5 64.77, -359.84 77.56" stroke="#000000" stroke-width="1" fill="none"></path></g><g transform="translate(1215.1578376349332 783.2781297262555) rotate(0 -180.90304068666387 39.4806136338849)"><path d="M-333.53 60.29 C-339.52 64.97, -347.11 69.27, -358.27 75.98 M-335.05 61.15 C-340.28 64.95, -344.64 68.09, -359.22 77.65" stroke="#000000" stroke-width="1" fill="none"></path></g><g transform="translate(1215.1578376349332 783.2781297262555) rotate(0 -180.90304068666387 39.4806136338849)"><path d="M-329.2 80.35 C-336.36 79.74, -345.1 78.73, -358.27 75.98 M-330.72 81.21 C-336.93 80.65, -342.22 79.46, -359.22 77.65" stroke="#000000" stroke-width="1" fill="none"></path></g></g><g transform="translate(292.5698494345629 558.6682482084154) rotate(0 94.5 37.5)"><text x="0" y="18" font-family="Virgil, Segoe UI Emoji" font-size="20px" fill="#000000" text-anchor="start" style="white-space: pre;" direction="ltr">on considère qu'on </text><text x="0" y="43" font-family="Virgil, Segoe UI Emoji" font-size="20px" fill="#000000" text-anchor="start" style="white-space: pre;" direction="ltr">intègre tous les </text><text x="0" y="68" font-family="Virgil, Segoe UI Emoji" font-size="20px" fill="#000000" text-anchor="start" style="white-space: pre;" direction="ltr">feedbacks locaux</text></g><g stroke-linecap="round" transform="translate(536.8117224222888 575.6255533464577) rotate(0 86.21761455616036 54.04866028848528)"><path d="M1.79 -1.59 C48.09 1.45, 94.92 -0.12, 171.83 -1.52 M0.25 -0.8 C60.25 2.14, 122.16 0.85, 173.08 -0.53 M172.98 1.77 C174.24 31.4, 173.15 65.26, 173.38 108.87 M172.67 -0.75 C171.1 26.13, 170.88 53.64, 172.53 107.91 M172.36 109.31 C126.06 109.44, 75.68 110.18, -1.41 108.07 M173.17 108.49 C104.44 106.5, 35.84 107.17, -0.77 107.54 M-1.98 107.48 C0.45 68.62, -0.58 28.12, 0.26 -0.37 M-0.39 107.69 C-0.13 76.82, 0.09 43.96, -0.3 -0.6" stroke="#000000" stroke-width="1" fill="none"></path></g><g transform="translate(1974.8091345073337 295.1729440166886) rotate(0 91.5 37.5)"><text x="0" y="18" font-family="Virgil, Segoe UI Emoji" font-size="20px" fill="#000000" text-anchor="start" style="white-space: pre;" direction="ltr">prise en compte</text><text x="0" y="43" font-family="Virgil, Segoe UI Emoji" font-size="20px" fill="#000000" text-anchor="start" style="white-space: pre;" direction="ltr">des poids des avis</text><text x="0" y="68" font-family="Virgil, Segoe UI Emoji" font-size="20px" fill="#000000" text-anchor="start" style="white-space: pre;" direction="ltr">externes</text></g><g stroke-linecap="round"><g transform="translate(1212.4606704894002 750.4291819531087) rotate(0 -252.0877548311613 -54.61499473342019)"><path d="M0.92 0.52 C-83.21 -17.61, -420.09 -89.6, -504.33 -107.97 M-0.06 -0.25 C-84.36 -18.8, -420.91 -91.64, -505.09 -109.75" stroke="#000000" stroke-width="1" fill="none"></path></g><g transform="translate(1212.4606704894002 750.4291819531087) rotate(0 -252.0877548311613 -54.61499473342019)"><path d="M-474.51 -113.26 C-484.29 -111.93, -497.15 -112.74, -503.94 -110.81 M-475.08 -114.66 C-484.41 -113.55, -492.02 -111.08, -504.75 -109.08" stroke="#000000" stroke-width="1" fill="none"></path></g><g transform="translate(1212.4606704894002 750.4291819531087) rotate(0 -252.0877548311613 -54.61499473342019)"><path d="M-478.84 -93.2 C-487.29 -98.67, -498.69 -106.26, -503.94 -110.81 M-479.41 -94.6 C-487.74 -98.92, -494.17 -101.93, -504.75 -109.08" stroke="#000000" stroke-width="1" fill="none"></path></g></g><g transform="translate(716.0010542066998 566.3822091519193) rotate(0 80.5 37.5)"><text x="0" y="18" font-family="Virgil, Segoe UI Emoji" font-size="20px" fill="#000000" text-anchor="start" style="white-space: pre;" direction="ltr">prise en compte </text><text x="0" y="43" font-family="Virgil, Segoe UI Emoji" font-size="20px" fill="#000000" text-anchor="start" style="white-space: pre;" direction="ltr">pour choix avis</text><text x="0" y="68" font-family="Virgil, Segoe UI Emoji" font-size="20px" fill="#000000" text-anchor="start" style="white-space: pre;" direction="ltr">externe</text></g><g stroke-linecap="round" transform="translate(1895.0412249327567 308.1357076566786) rotate(0 26.677455017877264 25.896294218207913)"><path d="M16.15 3.09 C20.67 0.63, 27.38 -0.43, 32.74 0.79 C38.09 2.02, 44.95 5.83, 48.28 10.44 C51.62 15.05, 53.25 22.82, 52.75 28.48 C52.25 34.13, 49.15 40.35, 45.29 44.36 C41.42 48.36, 35.21 52.05, 29.57 52.51 C23.92 52.97, 16.1 50.54, 11.42 47.09 C6.74 43.65, 2.96 37.31, 1.51 31.86 C0.06 26.42, -0.29 19.41, 2.74 14.42 C5.77 9.44, 16.5 4.16, 19.69 1.97 C22.87 -0.22, 21.9 1.02, 21.87 1.29 M21.43 0.49 C26.9 -0.99, 34.36 0.12, 39.49 2.72 C44.62 5.33, 50.24 10.7, 52.19 16.13 C54.14 21.57, 53 29.87, 51.19 35.35 C49.38 40.83, 46.27 46.55, 41.32 49.01 C36.37 51.46, 27.29 50.95, 21.48 50.08 C15.67 49.2, 9.9 47.49, 6.48 43.75 C3.05 40.02, 1.15 33.3, 0.91 27.66 C0.67 22.01, 1.66 14.53, 5.03 9.88 C8.39 5.22, 18.24 1.25, 21.08 -0.25 C23.92 -1.74, 21.73 0.15, 22.05 0.91" stroke="#000000" stroke-width="1" fill="none"></path></g><g transform="translate(1900.0412249327567 321.53200187488653) rotate(0 21.5 12.5)"><text x="21.5" y="18" font-family="Virgil, Segoe UI Emoji" font-size="20px" fill="#000000" text-anchor="middle" style="white-space: pre;" direction="ltr">1</text></g><g stroke-linecap="round" transform="translate(995.6769632175149 832.7624870055016) rotate(0 26.677455017877264 25.896294218207913)"><path d="M38.97 3.59 C43.95 5.53, 48.48 10.41, 50.8 15.63 C53.12 20.84, 54.57 29.37, 52.89 34.87 C51.22 40.37, 45.6 45.89, 40.76 48.65 C35.92 51.4, 29.42 52.18, 23.85 51.4 C18.28 50.63, 11.4 47.95, 7.34 43.99 C3.28 40.04, -0.36 33.26, -0.5 27.68 C-0.65 22.11, 2.71 14.98, 6.48 10.56 C10.25 6.13, 16.14 2.13, 22.09 1.13 C28.04 0.14, 38.53 3.72, 42.16 4.6 C45.79 5.48, 44.15 6.12, 43.86 6.4 M32.27 1.09 C37.75 1.71, 44.24 3.97, 47.77 8.03 C51.3 12.1, 53.55 19.57, 53.44 25.46 C53.33 31.35, 51.06 39.15, 47.11 43.35 C43.16 47.56, 35.61 49.83, 29.75 50.69 C23.89 51.54, 16.61 50.99, 11.93 48.49 C7.25 45.99, 3.27 40.8, 1.68 35.68 C0.08 30.57, 0.39 23.26, 2.36 17.8 C4.32 12.33, 8.45 5.68, 13.47 2.91 C18.49 0.14, 29.74 1.6, 32.49 1.18 C35.24 0.76, 30.36 0.11, 29.97 0.38" stroke="#000000" stroke-width="1" fill="none"></path></g><g transform="translate(1000.6769632175149 846.1587812237095) rotate(0 21.5 12.5)"><text x="21.5" y="18" font-family="Virgil, Segoe UI Emoji" font-size="20px" fill="#000000" text-anchor="middle" style="white-space: pre;" direction="ltr">1</text></g><g stroke-linecap="round"><g transform="translate(696.8544775231358 793.8061606678203) rotate(0 -30.272220125862987 -47.28180930048859)"><path d="M0.67 -0.08 C-9.37 -15.76, -51.11 -78.77, -61.21 -94.48 M-0.44 -1.17 C-10.03 -16.68, -49.04 -78.06, -59.08 -93.43" stroke="#000000" stroke-width="1" fill="none"></path></g><g transform="translate(696.8544775231358 793.8061606678203) rotate(0 -30.272220125862987 -47.28180930048859)"><path d="M-35.35 -77.09 C-41.85 -78.78, -46.74 -84.89, -60.12 -92.63 M-35.54 -74.48 C-40.05 -79.74, -46.69 -82.78, -58.51 -94.36" stroke="#000000" stroke-width="1" fill="none"></path></g><g transform="translate(696.8544775231358 793.8061606678203) rotate(0 -30.272220125862987 -47.28180930048859)"><path d="M-52.61 -65.99 C-55.34 -70.19, -56.5 -78.69, -60.12 -92.63 M-52.8 -63.38 C-53.54 -71.24, -56.36 -76.74, -58.51 -94.36" stroke="#000000" stroke-width="1" fill="none"></path></g></g><g stroke-linecap="round" transform="translate(1341.539415266777 379.85722451053823) rotate(0 26.677455017877264 25.896294218207913)"><path d="M16.48 2.29 C21.23 0.16, 28.18 0.42, 33.41 1.88 C38.64 3.35, 44.67 6.69, 47.88 11.05 C51.09 15.41, 53.11 22.36, 52.67 28.04 C52.22 33.73, 49.19 41.2, 45.21 45.17 C41.23 49.14, 34.66 51.65, 28.78 51.85 C22.89 52.06, 14.54 49.57, 9.92 46.39 C5.29 43.22, 2.05 38.2, 1.01 32.8 C-0.03 27.39, 0.56 19.32, 3.68 13.97 C6.8 8.63, 16.68 2.83, 19.72 0.74 C22.75 -1.36, 21.85 0.78, 21.87 1.41 M20.4 2.13 C25.61 0.56, 34.97 -0.63, 40.36 1.87 C45.76 4.37, 50.64 11.77, 52.75 17.14 C54.86 22.51, 54.84 28.87, 53.02 34.1 C51.19 39.33, 46.88 45.54, 41.8 48.53 C36.73 51.52, 28.35 52.97, 22.55 52.04 C16.74 51.12, 10.79 47.06, 6.97 42.98 C3.15 38.91, -0.08 32.91, -0.37 27.6 C-0.65 22.29, 1.59 15.63, 5.26 11.1 C8.93 6.57, 18.89 2.17, 21.65 0.39 C24.42 -1.38, 21.97 0.08, 21.84 0.45" stroke="#000000" stroke-width="1" fill="none"></path></g><g transform="translate(1346.539415266777 393.25351872874614) rotate(0 21.5 12.5)"><text x="21.5" y="18" font-family="Virgil, Segoe UI Emoji" font-size="20px" fill="#000000" text-anchor="middle" style="white-space: pre;" direction="ltr">2</text></g><g stroke-linecap="round" transform="translate(1899.6931825269965 495.06490498632775) rotate(0 26.677455017877264 25.896294218207913)"><path d="M22.72 -0.48 C28.05 -1.55, 36.73 0.54, 41.5 3.68 C46.27 6.82, 49.56 12.94, 51.33 18.35 C53.1 23.75, 54.02 31.01, 52.13 36.1 C50.23 41.18, 45.11 46.21, 39.96 48.88 C34.82 51.55, 27.02 53.13, 21.24 52.11 C15.46 51.08, 8.71 47.41, 5.27 42.74 C1.84 38.06, 0.34 29.71, 0.64 24.06 C0.93 18.41, 2.5 12.91, 7.04 8.85 C11.59 4.78, 23.34 0.97, 27.92 -0.31 C32.5 -1.58, 34.44 0.57, 34.52 1.18 M31.53 -0.06 C37.07 0.7, 43.38 5.19, 46.77 9.65 C50.16 14.1, 51.7 21.21, 51.87 26.66 C52.04 32.11, 51.05 38.41, 47.8 42.35 C44.54 46.29, 38.2 49.45, 32.32 50.28 C26.44 51.12, 17.61 49.95, 12.51 47.34 C7.41 44.73, 3.41 39.63, 1.71 34.63 C0.02 29.63, 0.52 22.49, 2.35 17.33 C4.18 12.17, 7.82 6.31, 12.68 3.69 C17.55 1.06, 28.64 2.13, 31.52 1.58 C34.4 1.02, 30.29 0.1, 29.96 0.37" stroke="#000000" stroke-width="1" fill="none"></path></g><g transform="translate(1904.6931825269965 508.46119920453566) rotate(0 21.5 12.5)"><text x="21.5" y="18" font-family="Virgil, Segoe UI Emoji" font-size="20px" fill="#000000" text-anchor="middle" style="white-space: pre;" direction="ltr">2</text></g><g transform="translate(1980.9939917535978 498.02586566230764) rotate(0 233 112.5)"><text x="0" y="18" font-family="Virgil, Segoe UI Emoji" font-size="20px" fill="#000000" text-anchor="start" style="white-space: pre;" direction="ltr">Analyse du feedback</text><text x="0" y="43" font-family="Virgil, Segoe UI Emoji" font-size="20px" fill="#000000" text-anchor="start" style="white-space: pre;" direction="ltr">    - est-il disruptif ? </text><text x="0" y="68" font-family="Virgil, Segoe UI Emoji" font-size="20px" fill="#000000" text-anchor="start" style="white-space: pre;" direction="ltr">        - si non : on le prend en compte</text><text x="0" y="93" font-family="Virgil, Segoe UI Emoji" font-size="20px" fill="#000000" text-anchor="start" style="white-space: pre;" direction="ltr">        - si oui : on l'écarte temporairement </text><text x="0" y="118" font-family="Virgil, Segoe UI Emoji" font-size="20px" fill="#000000" text-anchor="start" style="white-space: pre;" direction="ltr">                   en attente de confirmation </text><text x="0" y="143" font-family="Virgil, Segoe UI Emoji" font-size="20px" fill="#000000" text-anchor="start" style="white-space: pre;" direction="ltr">                    par les feedbacks futurs </text><text x="0" y="168" font-family="Virgil, Segoe UI Emoji" font-size="20px" fill="#000000" text-anchor="start" style="white-space: pre;" direction="ltr">                    ou extérieurs</text><text x="0" y="193" font-family="Virgil, Segoe UI Emoji" font-size="20px" fill="#000000" text-anchor="start" style="white-space: pre;" direction="ltr">    - prise en compte de la confiance envers </text><text x="0" y="218" font-family="Virgil, Segoe UI Emoji" font-size="20px" fill="#000000" text-anchor="start" style="white-space: pre;" direction="ltr">        l'émetteur du feedback</text></g><g stroke-linecap="round"><g transform="translate(782.8174018304944 942.9125256028934) rotate(0 8.519393844330239 161.01787430069248)"><path d="M1.04 -0.87 C3.86 52.76, 14.38 268.99, 16.91 322.91 M0.13 1.28 C2.88 55.09, 13.9 268, 16.48 321.22" stroke="#000000" stroke-width="1" fill="none"></path></g><g transform="translate(782.8174018304944 942.9125256028934) rotate(0 8.519393844330239 161.01787430069248)"><path d="M3.35 295.21 C9.92 302.2, 12.95 309.14, 18.16 320.34 M4.9 294.05 C8.24 303.63, 13.15 311.3, 16.01 321" stroke="#000000" stroke-width="1" fill="none"></path></g><g transform="translate(782.8174018304944 942.9125256028934) rotate(0 8.519393844330239 161.01787430069248)"><path d="M23.85 294.18 C24.3 301.66, 21.21 308.9, 18.16 320.34 M25.39 293.02 C21.91 302.93, 19.99 310.95, 16.01 321" stroke="#000000" stroke-width="1" fill="none"></path></g></g><g transform="translate(877.6592247153797 1175.1730356927928) rotate(0 212 15.5)"><text x="0" y="22" font-family="Virgil, Segoe UI Emoji" font-size="24.233017484051484px" fill="#000000" text-anchor="start" style="white-space: pre;" direction="ltr"> pour un vecteur de critères donné</text></g><g transform="translate(871.057248798513 1191.8596151843185) rotate(0 4.5 7.5)"><text x="0" y="10" font-family="Virgil, Segoe UI Emoji" font-size="11.383088057152326px" fill="#000000" text-anchor="start" style="white-space: pre;" direction="ltr">B</text></g><g transform="translate(857.4928346814115 1180.11624484691) rotate(0 6 12.5)"><text x="0" y="18" font-family="Virgil, Segoe UI Emoji" font-size="20px" fill="#000000" text-anchor="start" style="white-space: pre;" direction="ltr">F</text></g></svg>