<svg version="1.1" xmlns="http://www.w3.org/2000/svg" viewBox="0 0 1746.3158026228948 1549.6187256594128" width="3492.6316052457896" height="3099.2374513188256">
  <!-- svg-source:excalidraw -->
  
  <defs>
    <style>
      @font-face {
        font-family: "Virgil";
        src: url("https://excalidraw.com/Virgil.woff2");
      }
      @font-face {
        font-family: "Cascadia";
        src: url("https://excalidraw.com/Cascadia.woff2");
      }
    </style>
  </defs>
  <rect x="0" y="0" width="1746.3158026228948" height="1549.6187256594128" fill="#ffffff"></rect><g transform="translate(1380.891541860201 1428.9442696343594) rotate(0 122 23)"><text x="0" y="32" font-family="Virgil, Segoe UI Emoji" font-size="36px" fill="#000000" text-anchor="start" style="white-space: pre;" direction="ltr">Use case Leo</text></g><g stroke-linecap="round" transform="translate(982.19929823638 1363.2886975539727) rotate(0 93.49682463033014 79.29418684075182)"><path d="M67.05 3.83 C78.2 -0.26, 92.23 -0.98, 104.78 0.18 C117.32 1.35, 131.32 5.29, 142.32 10.82 C153.32 16.34, 163.76 24.49, 170.77 33.33 C177.79 42.18, 182.23 53.19, 184.43 63.88 C186.63 74.57, 186.82 87.03, 183.97 97.46 C181.12 107.88, 175 117.81, 167.34 126.43 C159.69 135.05, 149.09 143.82, 138.05 149.17 C127 154.52, 113.69 157.7, 101.07 158.53 C88.45 159.36, 74.19 157.85, 62.35 154.16 C50.52 150.47, 39.15 143.79, 30.06 136.39 C20.97 128.98, 12.81 119.46, 7.8 109.73 C2.8 100, -0.29 88.77, 0.03 78.01 C0.34 67.25, 4.29 54.85, 9.7 45.16 C15.12 35.48, 20.53 27.51, 32.5 19.91 C44.48 12.31, 70.37 2.51, 81.56 -0.44 C92.75 -3.4, 99.43 0.66, 99.65 2.21 M65.7 2.72 C77.05 -1.35, 93 -1.44, 105.96 0.12 C118.91 1.69, 132.9 6.63, 143.44 12.12 C153.98 17.61, 162.45 24.56, 169.19 33.05 C175.93 41.54, 181.56 52.34, 183.87 63.06 C186.19 73.78, 185.52 86.6, 183.06 97.38 C180.6 108.17, 176.52 118.99, 169.11 127.78 C161.7 136.57, 149.74 144.77, 138.6 150.1 C127.46 155.43, 114.94 159.28, 102.25 159.73 C89.57 160.19, 74.57 156.76, 62.5 152.82 C50.42 148.88, 39.22 143.35, 29.8 136.1 C20.37 128.85, 10.82 119.12, 5.93 109.33 C1.04 99.54, 0.03 87.77, 0.44 77.36 C0.85 66.96, 2.86 56.45, 8.39 46.9 C13.92 37.34, 23.78 27.37, 33.62 20.05 C43.45 12.73, 61.6 5.67, 67.4 2.98 C73.21 0.3, 68.08 2.52, 68.43 3.94" stroke="#000000" stroke-width="1" fill="none"></path></g><g stroke-linecap="round"><g transform="translate(1105.4678743495338 1357.1290890986497) rotate(0 63.99103064732185 -266.3694084635774)"><path d="M0.08 0.57 C21.46 -88.11, 107.99 -443, 129.31 -531.73 M-1.33 -0.18 C19.87 -89.2, 107.43 -444.38, 128.83 -533.31" stroke="#1864ab" stroke-width="1" fill="none"></path></g><g transform="translate(1105.4678743495338 1357.1290890986497) rotate(0 63.99103064732185 -266.3694084635774)"><path d="M133.06 -502.03 C132.51 -515.7, 131.02 -526.49, 127.65 -533.81 M132.94 -503.71 C130.36 -511.53, 129.61 -520.19, 129.23 -532.83" stroke="#1864ab" stroke-width="1" fill="none"></path></g><g transform="translate(1105.4678743495338 1357.1290890986497) rotate(0 63.99103064732185 -266.3694084635774)"><path d="M113.13 -506.89 C120.29 -518.69, 126.52 -527.6, 127.65 -533.81 M113 -508.57 C115.68 -515, 120.19 -522.38, 129.23 -532.83" stroke="#1864ab" stroke-width="1" fill="none"></path></g></g><g stroke-linecap="round" transform="translate(1357.5683793378912 92.79044198843633) rotate(0 113.23175013499815 94.56609032316265)"><path d="M76.52 4.63 C88.28 -0.36, 103.3 -0.8, 116.85 -0.17 C130.4 0.45, 145.25 3.93, 157.84 8.38 C170.44 12.83, 182.58 18.75, 192.42 26.53 C202.27 34.31, 211.1 44.81, 216.89 55.05 C222.69 65.29, 226.52 76.56, 227.2 87.96 C227.88 99.36, 225.28 112.3, 220.98 123.43 C216.68 134.56, 209.78 145.76, 201.39 154.76 C193 163.75, 182.32 171.87, 170.62 177.38 C158.92 182.89, 144.8 186.3, 131.18 187.81 C117.57 189.31, 102.46 188.71, 88.93 186.4 C75.4 184.1, 61.21 180.02, 49.99 173.98 C38.76 167.93, 29.42 159.56, 21.6 150.14 C13.79 140.71, 6.54 128.57, 3.09 117.41 C-0.36 106.26, -0.9 94.51, 0.9 83.2 C2.71 71.89, 7.56 59.59, 13.93 49.54 C20.29 39.49, 28.1 30.38, 39.08 22.89 C50.06 15.4, 72.03 7.76, 79.81 4.59 C87.59 1.43, 85.1 2.48, 85.75 3.89 M136.73 1.56 C149.71 2.34, 162.6 9.6, 173.99 16.04 C185.38 22.49, 196.82 30.99, 205.06 40.24 C213.31 49.48, 220.25 60.43, 223.47 71.52 C226.69 82.6, 225.88 95.45, 224.39 106.74 C222.91 118.04, 220.98 129.56, 214.56 139.28 C208.14 148.99, 196.34 157.82, 185.86 165.03 C175.38 172.25, 164.15 178.41, 151.67 182.55 C139.19 186.69, 124.71 190.07, 110.96 189.88 C97.21 189.69, 81.82 186, 69.18 181.4 C56.53 176.81, 44.69 169.89, 35.09 162.32 C25.49 154.74, 17.16 146.36, 11.58 135.96 C5.99 125.56, 2.64 111.6, 1.58 99.92 C0.52 88.24, 1.12 76.79, 5.21 65.91 C9.29 55.03, 17.45 43.52, 26.11 34.63 C34.77 25.74, 45.45 18.03, 57.15 12.58 C68.85 7.12, 83.19 3.59, 96.3 1.9 C109.4 0.2, 129.08 1.84, 135.78 2.42 C142.47 2.99, 136.63 4.05, 136.47 5.35" stroke="#000000" stroke-width="1" fill="none"></path></g><g transform="translate(1398.3379681903348 155.80437114457573) rotate(0 76.5 35.5)"><text x="76.5" y="25.5" font-family="Virgil, Segoe UI Emoji" font-size="28px" fill="#000000" text-anchor="middle" style="white-space: pre;" direction="ltr">Participant</text><text x="76.5" y="61" font-family="Virgil, Segoe UI Emoji" font-size="28px" fill="#000000" text-anchor="middle" style="white-space: pre;" direction="ltr">n</text></g><g stroke-linecap="round" transform="translate(902.4654256611298 499.7112737128949) rotate(0 328.19906254184 160.0528027825568)"><path d="M-0.23 0.15 C224.84 1.3, 450.95 1.48, 655.9 0.03 M0.27 -0.09 C177.77 1.97, 354.71 1.87, 656.41 0.38 M656.45 -0.34 C655 100.58, 655.05 204.02, 656.12 319.8 M656.78 0.02 C658.65 74.46, 658.82 147.95, 655.86 319.86 M655.73 320.88 C439.67 318.69, 221.61 319.44, 0.62 319.95 M656.26 320.02 C464.86 321.67, 273.3 321.46, -0.23 320.46 M1.38 320.47 C-2.14 238.58, -2.01 155.62, 0.6 -0.7 M0.21 319.59 C2.47 197.65, 1.91 75.15, 0.51 0.61" stroke="#1864ab" stroke-width="1" fill="none"></path></g><g transform="translate(1173.0984649326151 625.2890622324264) rotate(0 55 23)"><text x="0" y="32" font-family="Virgil, Segoe UI Emoji" font-size="36px" fill="#1864ab" text-anchor="start" style="white-space: pre;" direction="ltr">server</text></g><g stroke-linecap="round"><g transform="translate(918.1583663690994 292.2865406398637) rotate(0 101.7026014686503 103.24792405238826)"><path d="M-0.82 0.57 C32.64 34.75, 168.11 171.43, 201.9 205.57 M0.95 -0.17 C34.7 34.09, 170.31 172.27, 204.22 206.67" stroke="#1864ab" stroke-width="1" fill="none"></path></g><g transform="translate(918.1583663690994 292.2865406398637) rotate(0 101.7026014686503 103.24792405238826)"><path d="M178.1 192.54 C186.43 197.8, 196.85 204.2, 204.75 208.61 M177.66 193.34 C185.78 198.15, 194.55 202.92, 205.08 207.63" stroke="#1864ab" stroke-width="1" fill="none"></path></g><g transform="translate(918.1583663690994 292.2865406398637) rotate(0 101.7026014686503 103.24792405238826)"><path d="M192.73 178.15 C195.37 188.97, 200.03 201.04, 204.75 208.61 M192.29 178.95 C195.96 188.19, 200.14 197.48, 205.08 207.63" stroke="#1864ab" stroke-width="1" fill="none"></path></g></g><g transform="translate(1004.5117238948797 1408.4842107062327) rotate(0 76.5 35.5)"><text x="76.5" y="25.5" font-family="Virgil, Segoe UI Emoji" font-size="28px" fill="#000000" text-anchor="middle" style="white-space: pre;" direction="ltr">Participant</text><text x="76.5" y="61" font-family="Virgil, Segoe UI Emoji" font-size="28px" fill="#000000" text-anchor="middle" style="white-space: pre;" direction="ltr">1</text></g><g stroke-linecap="round" transform="translate(762.7915006361404 140.41775312156153) rotate(0 95.43196308529332 81.80463672827142)"><path d="M52.97 7.7 C62.75 2.33, 77.95 0.34, 90.2 -0.04 C102.45 -0.41, 114.88 1.92, 126.46 5.46 C138.04 9.01, 150.46 14.5, 159.71 21.24 C168.96 27.99, 176.63 36.73, 181.96 45.93 C187.28 55.13, 191.01 65.93, 191.64 76.44 C192.27 86.96, 190.08 99.05, 185.76 109.03 C181.44 119, 173.87 128.4, 165.71 136.28 C157.56 144.16, 147.53 151.73, 136.83 156.3 C126.13 160.86, 113.62 163.33, 101.52 163.67 C89.42 164, 75.79 161.92, 64.25 158.3 C52.71 154.69, 41.58 148.93, 32.3 142 C23.01 135.06, 13.87 125.95, 8.55 116.7 C3.22 107.45, 1 96.71, 0.35 86.51 C-0.29 76.3, 0.82 65.34, 4.66 55.46 C8.51 45.57, 13.96 35.5, 23.41 27.19 C32.86 18.89, 53.51 9.51, 61.39 5.61 C69.27 1.71, 69.96 2.57, 70.69 3.8 M59.14 6.86 C69.38 1.83, 82.3 -1.29, 94.54 -1.28 C106.77 -1.26, 121.3 2.98, 132.52 6.96 C143.74 10.95, 153.54 15.59, 161.87 22.63 C170.2 29.67, 177.51 39.4, 182.48 49.19 C187.44 58.97, 191.21 71.03, 191.65 81.36 C192.1 91.69, 189.77 101.38, 185.16 111.17 C180.54 120.97, 172.87 132.26, 163.94 140.12 C155 147.99, 142.67 154.59, 131.55 158.35 C120.43 162.1, 109.03 162.98, 97.23 162.66 C85.44 162.34, 72.44 160.17, 60.76 156.42 C49.08 152.67, 36.21 147.25, 27.15 140.13 C18.09 133.01, 10.71 123.48, 6.4 113.72 C2.09 103.96, 1.12 91.96, 1.31 81.57 C1.51 71.18, 3.43 61, 7.57 51.37 C11.71 41.75, 17.74 31.33, 26.14 23.82 C34.53 16.3, 52.26 8.97, 57.95 6.3 C63.65 3.63, 59.42 6.37, 60.3 7.78" stroke="#000000" stroke-width="1" fill="none"></path></g><g transform="translate(785.1406052834623 192.84469999703197) rotate(0 76.5 35.5)"><text x="76.5" y="25.5" font-family="Virgil, Segoe UI Emoji" font-size="28px" fill="#000000" text-anchor="middle" style="white-space: pre;" direction="ltr">Participant</text><text x="76.5" y="61" font-family="Virgil, Segoe UI Emoji" font-size="28px" fill="#000000" text-anchor="middle" style="white-space: pre;" direction="ltr">2</text></g><g stroke-linecap="round"><g transform="translate(1420.3761449005358 282.3740591324421) rotate(0 -36.708291819679516 106.31036229498504)"><path d="M0.91 -0.3 C-11.26 35.55, -60.98 178.4, -73.22 214.12 M-0.07 -1.5 C-12.41 34.06, -62.16 176.67, -74.32 212.23" stroke="#1864ab" stroke-width="1" fill="none"></path></g><g transform="translate(1420.3761449005358 282.3740591324421) rotate(0 -36.708291819679516 106.31036229498504)"><path d="M-75.3 181.72 C-74.17 191.41, -74.17 200.07, -76 211.81 M-75.61 182.96 C-75.51 188.9, -74.8 196.39, -73.39 212.42" stroke="#1864ab" stroke-width="1" fill="none"></path></g><g transform="translate(1420.3761449005358 282.3740591324421) rotate(0 -36.708291819679516 106.31036229498504)"><path d="M-55.91 188.43 C-60.22 196.37, -65.71 203.12, -76 211.81 M-56.22 189.66 C-60.56 194.1, -64.3 200.05, -73.39 212.42" stroke="#1864ab" stroke-width="1" fill="none"></path></g></g><g stroke-linecap="round"><g transform="translate(884.5871695689311 579.5376918798123) rotate(0 -180.91024664778092 64.99313953293641)"><path d="M-1.09 0.97 C-61.42 22.3, -301.52 107.23, -361.64 128.39 M0.54 0.44 C-59.94 21.87, -301.87 108.19, -362.36 129.55" stroke="#000000" stroke-width="1" fill="none"></path></g><g transform="translate(884.5871695689311 579.5376918798123) rotate(0 -180.91024664778092 64.99313953293641)"><path d="M-337.6 111.17 C-347.93 116.98, -356.28 123.8, -362.18 127.57 M-339.96 109.5 C-347.34 117.58, -356.19 125.1, -362.67 130.46" stroke="#000000" stroke-width="1" fill="none"></path></g><g transform="translate(884.5871695689311 579.5376918798123) rotate(0 -180.91024664778092 64.99313953293641)"><path d="M-330.74 130.5 C-343.38 129.93, -353.98 130.42, -362.18 127.57 M-333.09 128.83 C-343.22 129.66, -354.65 129.93, -362.67 130.46" stroke="#000000" stroke-width="1" fill="none"></path></g></g><g stroke-linecap="round" transform="translate(147.8578930979388 566.1743402146584) rotate(0 185.29563253027163 184.31099353226057)"><path d="M0.19 0.07 C143.79 0.43, 285.64 1.99, 369.52 -0.63 M-0.56 -0.54 C90.3 2.58, 181.33 2.5, 370.93 -0.49 M370.57 0.8 C367.49 121, 369.74 241.49, 369.87 367.54 M370.89 0.48 C371.09 97.33, 370.16 194, 370.79 368.53 M369.53 369.51 C250.47 369.11, 127.27 367.8, 0.03 369.3 M370.47 368.17 C233.61 367.03, 97.24 367.09, -0.6 368.97 M-0.12 369.12 C-3.23 283.01, -2.95 195.64, 0.94 -1.09 M0.52 368.86 C0.42 242.76, 1.43 116.78, 0.29 0.38" stroke="#000000" stroke-width="1" fill="none"></path></g><g transform="translate(206.13061925296233 727.2354735600471) rotate(0 128 18)"><text x="0" y="25" font-family="Virgil, Segoe UI Emoji" font-size="28px" fill="#000000" text-anchor="start" style="white-space: pre;" direction="ltr">Reputation system</text></g><g stroke-linecap="round"><g transform="translate(519.4696022109665 672.4547855079395) rotate(0 191.15820911359833 -64.39240645134156)"><path d="M0.93 -0.9 C64.46 -22.56, 318.8 -108.79, 382.36 -130.02 M-0.05 1.24 C63.29 -20.27, 318.19 -106.95, 381.85 -128.84" stroke="#000000" stroke-width="1" fill="none"></path></g><g transform="translate(519.4696022109665 672.4547855079395) rotate(0 191.15820911359833 -64.39240645134156)"><path d="M356.99 -108.62 C366.7 -116.39, 378.92 -123.63, 383.63 -129.11 M359.12 -110.11 C365.47 -115.27, 371.58 -121.2, 382.78 -129.5" stroke="#000000" stroke-width="1" fill="none"></path></g><g transform="translate(519.4696022109665 672.4547855079395) rotate(0 191.15820911359833 -64.39240645134156)"><path d="M350.36 -128.04 C362.7 -128.12, 377.56 -127.62, 383.63 -129.11 M352.49 -129.53 C360.79 -129.38, 368.7 -130.02, 382.78 -129.5" stroke="#000000" stroke-width="1" fill="none"></path></g></g><g stroke-linecap="round"><g transform="translate(1002.2115964107211 1374.0469452839577) rotate(0 -327.64956988268364 -214.59392577470172)"><path d="M-0.18 -0.19 C-109.19 -71.61, -545.04 -355.84, -654.2 -427.4 M-1.73 -1.34 C-110.88 -72.56, -546.62 -357.75, -655.12 -429" stroke="#000000" stroke-width="1" fill="none"></path></g><g transform="translate(1002.2115964107211 1374.0469452839577) rotate(0 -327.64956988268364 -214.59392577470172)"><path d="M-626.24 -422.03 C-632.74 -425.63, -644.72 -425.87, -653.22 -429.86 M-625.31 -422.16 C-636.82 -424.87, -646.28 -427.6, -655.77 -428.95" stroke="#000000" stroke-width="1" fill="none"></path></g><g transform="translate(1002.2115964107211 1374.0469452839577) rotate(0 -327.64956988268364 -214.59392577470172)"><path d="M-637.48 -404.86 C-640.9 -413.39, -649.65 -418.58, -653.22 -429.86 M-636.56 -405 C-644.28 -413.51, -649.91 -422.08, -655.77 -428.95" stroke="#000000" stroke-width="1" fill="none"></path></g></g><g stroke-linecap="round"><g transform="translate(790.6999161914832 285.17661361971017) rotate(0 -222.7159771325703 125.80754911683498)"><path d="M0.14 -0.04 C-73.93 41.83, -370.53 209.31, -444.9 251.32 M-1.24 -1.1 C-75.38 40.93, -371.25 210.88, -445.58 252.72" stroke="#000000" stroke-width="1" fill="none"></path></g><g transform="translate(790.6999161914832 285.17661361971017) rotate(0 -222.7159771325703 125.80754911683498)"><path d="M-426.22 230.73 C-431.65 234.73, -435.55 243.43, -445.72 251.58 M-426.72 230.01 C-431.82 236.37, -439.13 243.76, -445.68 252.79" stroke="#000000" stroke-width="1" fill="none"></path></g><g transform="translate(790.6999161914832 285.17661361971017) rotate(0 -222.7159771325703 125.80754911683498)"><path d="M-416.06 248.56 C-424.16 247.92, -430.71 251.97, -445.72 251.58 M-416.56 247.84 C-425.01 248.51, -435.53 250.27, -445.68 252.79" stroke="#000000" stroke-width="1" fill="none"></path></g></g><g transform="translate(578.6991473257203 684.9524135282787) rotate(0 140.5 50.00000000000001)"><text x="140.5" y="18" font-family="Virgil, Segoe UI Emoji" font-size="20px" fill="#000000" text-anchor="middle" style="white-space: pre;" direction="ltr">feedback sur la déviation</text><text x="140.5" y="43" font-family="Virgil, Segoe UI Emoji" font-size="20px" fill="#000000" text-anchor="middle" style="white-space: pre;" direction="ltr">du modèle global du</text><text x="140.5" y="68" font-family="Virgil, Segoe UI Emoji" font-size="20px" fill="#000000" text-anchor="middle" style="white-space: pre;" direction="ltr">round r-1 et les modèles de </text><text x="140.5" y="93" font-family="Virgil, Segoe UI Emoji" font-size="20px" fill="#000000" text-anchor="middle" style="white-space: pre;" direction="ltr">chaque participants</text></g><g transform="translate(582.7739141376783 532.9970890321781) rotate(0 99 25)"><text x="99" y="18" font-family="Virgil, Segoe UI Emoji" font-size="20px" fill="#000000" text-anchor="middle" style="white-space: pre;" direction="ltr">note réputation de </text><text x="99" y="43" font-family="Virgil, Segoe UI Emoji" font-size="20px" fill="#000000" text-anchor="middle" style="white-space: pre;" direction="ltr">chaque participant</text></g><g transform="translate(222.62644037727387 1103.8461915367077) rotate(0 165 50)"><text x="165" y="18" font-family="Virgil, Segoe UI Emoji" font-size="20px" fill="#000000" text-anchor="middle" style="white-space: pre;" direction="ltr">feedback (score accuracy)</text><text x="165" y="43" font-family="Virgil, Segoe UI Emoji" font-size="20px" fill="#000000" text-anchor="middle" style="white-space: pre;" direction="ltr">sur les modèles des </text><text x="165" y="68" font-family="Virgil, Segoe UI Emoji" font-size="20px" fill="#000000" text-anchor="middle" style="white-space: pre;" direction="ltr">autres appliqués aux données</text><text x="165" y="93" font-family="Virgil, Segoe UI Emoji" font-size="20px" fill="#000000" text-anchor="middle" style="white-space: pre;" direction="ltr"> locale du participant au round r</text></g><g stroke-linecap="round"><g transform="translate(1162.3325900635077 832.0918850768447) rotate(0 -52.68131341266417 259.48123912459687)"><path d="M0.05 1.1 C-17.33 87.26, -87.12 431.01, -104.88 516.89 M-1.39 0.64 C-18.79 86.99, -88.3 432.2, -105.41 518.32" stroke="#1864ab" stroke-width="1" fill="none"></path></g><g transform="translate(1162.3325900635077 832.0918850768447) rotate(0 -52.68131341266417 259.48123912459687)"><path d="M-108.1 490.01 C-109.17 494.61, -108.84 504.3, -104.27 519.78 M-110.13 489.55 C-108.35 494.96, -106.73 502.78, -105.26 517.94" stroke="#1864ab" stroke-width="1" fill="none"></path></g><g transform="translate(1162.3325900635077 832.0918850768447) rotate(0 -52.68131341266417 259.48123912459687)"><path d="M-87.97 494.04 C-94.02 497.66, -98.66 506.35, -104.27 519.78 M-90 493.58 C-92.81 498.24, -95.74 505.15, -105.26 517.94" stroke="#1864ab" stroke-width="1" fill="none"></path></g></g><g stroke-linecap="round"><g transform="translate(1145.397339598073 495.8728996878677) rotate(0 -106.47922530774804 -106.41455252261028)"><path d="M-1.1 0.83 C-36.47 -34.84, -177.41 -178.16, -212.64 -213.66 M0.52 0.22 C-34.96 -35.37, -177.88 -176.92, -213.48 -212.65" stroke="#1864ab" stroke-width="1" fill="none"></path></g><g transform="translate(1145.397339598073 495.8728996878677) rotate(0 -106.47922530774804 -106.41455252261028)"><path d="M-184.88 -199.69 C-195.24 -203.02, -199.92 -205.44, -212.62 -212.95 M-186.75 -200.88 C-196.85 -204.8, -206.26 -209.45, -213.64 -213.11" stroke="#1864ab" stroke-width="1" fill="none"></path></g><g transform="translate(1145.397339598073 495.8728996878677) rotate(0 -106.47922530774804 -106.41455252261028)"><path d="M-199.37 -185.15 C-205.91 -192.22, -206.75 -198.51, -212.62 -212.95 M-201.23 -186.34 C-206.17 -195.53, -210.28 -205.5, -213.64 -213.11" stroke="#1864ab" stroke-width="1" fill="none"></path></g></g><g stroke-linecap="round"><g transform="translate(1305.019654448513 486.81422090616525) rotate(0 43.376978442398354 -114.69376313649644)"><path d="M0.23 -0.96 C14.73 -39.1, 73.37 -190.55, 87.86 -228.61 M-1.11 1.14 C13.2 -37.38, 72.63 -192.3, 87.2 -230.53" stroke="#1864ab" stroke-width="1" fill="none"></path></g><g transform="translate(1305.019654448513 486.81422090616525) rotate(0 43.376978442398354 -114.69376313649644)"><path d="M85.11 -199.63 C87.48 -212.02, 86.43 -223.12, 86.06 -229.8 M86.89 -200.67 C87.17 -209.76, 87.94 -218.02, 87.63 -230.12" stroke="#1864ab" stroke-width="1" fill="none"></path></g><g transform="translate(1305.019654448513 486.81422090616525) rotate(0 43.376978442398354 -114.69376313649644)"><path d="M65.94 -206.96 C75.5 -216.65, 81.61 -225.01, 86.06 -229.8 M67.72 -208 C73.52 -214.82, 79.86 -220.95, 87.63 -230.12" stroke="#1864ab" stroke-width="1" fill="none"></path></g></g><g transform="translate(1037.6637680077324 326.653998641891) rotate(0 76 37.5)"><text x="0" y="18" font-family="Virgil, Segoe UI Emoji" font-size="20px" fill="#1864ab" text-anchor="start" style="white-space: pre;" direction="ltr">nouveaux poids</text><text x="0" y="43" font-family="Virgil, Segoe UI Emoji" font-size="20px" fill="#1864ab" text-anchor="start" style="white-space: pre;" direction="ltr">pour le modèle </text><text x="0" y="68" font-family="Virgil, Segoe UI Emoji" font-size="20px" fill="#1864ab" text-anchor="start" style="white-space: pre;" direction="ltr">du round r-1</text></g><g transform="translate(865.3072274447859 399.3740642768238) rotate(0 93.5 37.5)"><text x="0" y="18" font-family="Virgil, Segoe UI Emoji" font-size="20px" fill="#1864ab" text-anchor="start" style="white-space: pre;" direction="ltr">modèle entrainé </text><text x="0" y="43" font-family="Virgil, Segoe UI Emoji" font-size="20px" fill="#1864ab" text-anchor="start" style="white-space: pre;" direction="ltr">localement pour le </text><text x="0" y="68" font-family="Virgil, Segoe UI Emoji" font-size="20px" fill="#1864ab" text-anchor="start" style="white-space: pre;" direction="ltr">round r</text></g><g stroke-linecap="round"><g transform="translate(996.4788751716187 840.8208754343902) rotate(0 11.564627443781546 258.9589539867125)"><path d="M-1.03 0.95 C3.02 87.05, 20.06 431.58, 24.16 517.52 M0.63 0.4 C4.55 86.11, 19.64 429.72, 23.3 515.99" stroke="#000000" stroke-width="1" fill="none"></path></g><g transform="translate(996.4788751716187 840.8208754343902) rotate(0 11.564627443781546 258.9589539867125)"><path d="M13.41 488.56 C17.21 495.64, 18.99 502.97, 21.71 515.66 M11.93 488.12 C15.78 495.21, 17.51 503.22, 22.86 516.08" stroke="#000000" stroke-width="1" fill="none"></path></g><g transform="translate(996.4788751716187 840.8208754343902) rotate(0 11.564627443781546 258.9589539867125)"><path d="M33.91 487.67 C31.84 494.83, 27.74 502.41, 21.71 515.66 M32.43 487.23 C30.55 494.42, 26.56 502.67, 22.86 516.08" stroke="#000000" stroke-width="1" fill="none"></path></g></g><g transform="translate(734.6137514926063 1031.4480917657766) rotate(0 127 37.5)"><text x="127" y="18" font-family="Virgil, Segoe UI Emoji" font-size="20px" fill="#000000" text-anchor="middle" style="white-space: pre;" direction="ltr">ensemble de modèles </text><text x="127" y="43" font-family="Virgil, Segoe UI Emoji" font-size="20px" fill="#000000" text-anchor="middle" style="white-space: pre;" direction="ltr">d'autres participants au </text><text x="127" y="68" font-family="Virgil, Segoe UI Emoji" font-size="20px" fill="#000000" text-anchor="middle" style="white-space: pre;" direction="ltr">round r </text></g><g stroke-linecap="round"><g transform="translate(1402.7991089645352 499.473388614778) rotate(0 33.82270388247309 -103.87474953011322)"><path d="M0.53 -0.11 C12 -34.28, 57.13 -171.56, 68.3 -205.89 M-0.65 -1.21 C10.7 -35.65, 55.54 -173.15, 67.32 -207.64" stroke="#000000" stroke-width="1" fill="none"></path></g><g transform="translate(1402.7991089645352 499.473388614778) rotate(0 33.82270388247309 -103.87474953011322)"><path d="M67.97 -177.75 C69.35 -186.7, 68.81 -194.38, 65.62 -206.28 M67.86 -177.45 C68.38 -183.77, 67.77 -190.96, 67.35 -206.77" stroke="#000000" stroke-width="1" fill="none"></path></g><g transform="translate(1402.7991089645352 499.473388614778) rotate(0 33.82270388247309 -103.87474953011322)"><path d="M48.5 -184.23 C54.81 -191.61, 59.26 -197.63, 65.62 -206.28 M48.39 -183.92 C53.17 -188.98, 56.84 -194.75, 67.35 -206.77" stroke="#000000" stroke-width="1" fill="none"></path></g></g><g stroke-linecap="round"><g transform="translate(1355.1148172957937 147.1209339247298) rotate(0 -546.0968028946058 161.68739167828198)"><path d="M1.03 0.82 C-96.53 -9.75, -402.46 -130.57, -584.83 -63.15 C-767.21 4.28, -1008.47 327.33, -1093.22 405.37 M0.11 0.21 C-97.65 -10.17, -403.93 -129.3, -585.74 -61.54 C-767.56 6.22, -1006.16 328.83, -1090.8 406.78" stroke="#000000" stroke-width="1" fill="none"></path></g><g transform="translate(1355.1148172957937 147.1209339247298) rotate(0 -546.0968028946058 161.68739167828198)"><path d="M-1078 379.14 C-1083.02 387.2, -1086.92 396.6, -1090.98 405.1 M-1079.87 379.1 C-1084.12 389.53, -1087.57 397.9, -1091.65 406.43" stroke="#000000" stroke-width="1" fill="none"></path></g><g transform="translate(1355.1148172957937 147.1209339247298) rotate(0 -546.0968028946058 161.68739167828198)"><path d="M-1062.85 392.98 C-1073.13 396.39, -1082.26 401.02, -1090.98 405.1 M-1064.72 392.94 C-1074.24 398.54, -1083.07 402, -1091.65 406.43" stroke="#000000" stroke-width="1" fill="none"></path></g></g><g stroke-linecap="round"><g transform="translate(1407.0912398695023 488.5349444732357) rotate(0 33.73711173985953 -103.06048396441798)"><path d="M-0.23 -0.97 C11.03 -35.18, 55.76 -171.57, 67.18 -205.64 M-1.8 1.14 C9.83 -33.36, 57.72 -172.55, 69.28 -207.26" stroke="#000000" stroke-width="1" fill="none"></path></g><g transform="translate(1407.0912398695023 488.5349444732357) rotate(0 33.73711173985953 -103.06048396441798)"><path d="M68.33 -179.23 C71.45 -185.44, 71.66 -193.92, 71.15 -206.3 M70.46 -177.08 C69.62 -187.24, 69.91 -199.27, 68.98 -206.69" stroke="#000000" stroke-width="1" fill="none"></path></g><g transform="translate(1407.0912398695023 488.5349444732357) rotate(0 33.73711173985953 -103.06048396441798)"><path d="M48.9 -185.82 C57.25 -190.21, 62.71 -196.91, 71.15 -206.3 M51.03 -183.67 C57.17 -191.42, 64.42 -201.09, 68.98 -206.69" stroke="#000000" stroke-width="1" fill="none"></path></g></g><g stroke-linecap="round"><g transform="translate(930.1893820722712 501.73419342663726) rotate(0 -71.8754154590406 -97.14109623640513)"><path d="M0.18 0.82 C1 0.06, 31.17 4.77, 5.1 -3.44 C-20.97 -11.66, -138.61 -16.29, -156.26 -48.48 C-173.9 -80.66, -109.85 -171.92, -100.75 -196.54 M-1.18 0.21 C-0.53 0.11, 30.11 6.23, 4.22 -2.19 C-21.67 -10.61, -139.1 -18.1, -156.52 -50.3 C-173.95 -82.49, -109.79 -171.14, -100.32 -195.37" stroke="#000000" stroke-width="1" fill="none"></path></g><g transform="translate(930.1893820722712 501.73419342663726) rotate(0 -71.8754154590406 -97.14109623640513)"><path d="M-103.45 -165.47 C-104.58 -173.49, -100.59 -183.83, -100.08 -196.23 M-104.26 -165.71 C-102.73 -175.7, -102.38 -186.31, -100.23 -196" stroke="#000000" stroke-width="1" fill="none"></path></g><g transform="translate(930.1893820722712 501.73419342663726) rotate(0 -71.8754154590406 -97.14109623640513)"><path d="M-121.46 -175.3 C-116.82 -180.25, -107.15 -187.49, -100.08 -196.23 M-122.27 -175.54 C-114.6 -182.22, -108.18 -189.52, -100.23 -196" stroke="#000000" stroke-width="1" fill="none"></path></g></g><g stroke-linecap="round"><g transform="translate(889.5193158226011 773.1180417376963) rotate(0 -180.8075919375924 64.71418389771289)"><path d="M-0.4 -0.85 C-60.92 20.92, -303.1 108.66, -363.21 130.28 M1.59 1.32 C-58.57 22.81, -300.62 107.31, -361.1 128.76" stroke="#000000" stroke-width="1" fill="none"></path></g><g transform="translate(889.5193158226011 773.1180417376963) rotate(0 -180.8075919375924 64.71418389771289)"><path d="M-339.32 107.83 C-342.85 116.97, -352.03 119.2, -363.02 127.74 M-337.27 110.6 C-343.89 115.38, -349.62 121.12, -362.02 128.9" stroke="#000000" stroke-width="1" fill="none"></path></g><g transform="translate(889.5193158226011 773.1180417376963) rotate(0 -180.8075919375924 64.71418389771289)"><path d="M-332.51 127.19 C-337.99 130.61, -349.18 127.15, -363.02 127.74 M-330.47 129.96 C-338.87 129.59, -346.43 130.11, -362.02 128.9" stroke="#000000" stroke-width="1" fill="none"></path></g></g><g transform="translate(587.1055740849324 855.2952830330994) rotate(0 186 50)"><text x="186" y="18" font-family="Virgil, Segoe UI Emoji" font-size="20px" fill="#000000" text-anchor="middle" style="white-space: pre;" direction="ltr">feedback sur la déviation</text><text x="186" y="43" font-family="Virgil, Segoe UI Emoji" font-size="20px" fill="#000000" text-anchor="middle" style="white-space: pre;" direction="ltr">du modèle de chaque participant </text><text x="186" y="68" font-family="Virgil, Segoe UI Emoji" font-size="20px" fill="#000000" text-anchor="middle" style="white-space: pre;" direction="ltr">au round r par rapport à son propre </text><text x="186" y="93" font-family="Virgil, Segoe UI Emoji" font-size="20px" fill="#000000" text-anchor="middle" style="white-space: pre;" direction="ltr">modèle au round r-1</text></g><g stroke-linecap="round" transform="translate(10 10) rotate(0 863.1579013114474 764.8093628297064)"><path d="M-0.34 0.77 C582.22 -2.47, 1164.51 -1.74, 1726.53 -0.36 M0.21 -0.04 C623.15 3.76, 1246.5 3.51, 1726.63 -0.26 M1726.07 0.29 C1720.7 362.51, 1721.38 724.3, 1725.8 1529.71 M1725.99 0.2 C1720.96 467.26, 1720.79 934.76, 1726.05 1529.43 M1725.74 1528.94 C1315.84 1533.44, 904.87 1533.91, 0.58 1529.18 M1726.68 1529.44 C1130.45 1525.7, 534.25 1525.85, -0.17 1529.59 M-0.56 1528.83 C1.74 1167.53, 1.92 806.11, 0.24 -0.6 M0.13 1529.99 C5.9 1131.88, 5.29 734.01, 0.35 0.19" stroke="#000000" stroke-width="1" fill="none"></path></g></svg>